M48
;Layer_Color=9474304
;FILE_FORMAT=4:2
METRIC,LZ
;TYPE=PLATED
T1F00S00C0.40
T2F00S00C1.00
T3F00S00C1.40
T4F00S00C1.60
%
T01
X00319Y00059
X00335
X003127Y001167
X003169Y001329
X003247Y001407
X003515Y001407
X003056Y001598
X002978Y00152
X002837Y001237
X00267Y00136
X002893Y001959
X002971Y002058
X00325Y00221
X00212Y00335
X00173
X00168Y00211
X00154
X0014
X001626Y003821
X001636Y004007
X0005Y00507
X00226Y00493
X002011Y004022
X002Y003821
T02
X005842Y000254
X006096
X00635
X0057Y001499
Y002515
Y003531
X005446
X005192
X00541Y003004
X005446Y002515
X005192
X00541Y001988
X005446Y001499
X005192
X00541Y000972
X005334Y000254
X00508
X005588
X004572
X004318
X004064
X00381
X003556
X003302
X003048
X002794
X00366Y00069
X003914
X004168
X004422
X00428Y00155
X004026
X003772
X00325Y0024
X0026Y00286
X001129Y002976
Y002722
Y002468
Y002214
X000875Y002341
Y002595
Y002849
Y003103
Y001513
Y001259
Y001005
Y000751
X001129Y000624
Y000878
Y001132
Y001386
Y003794
Y004048
Y004302
Y004556
X000875Y004429
Y004175
Y003921
Y004683
X00157Y00479
X001824
X002078
X002134Y00508
X00188
X002388
X002642
X002896
X00315
X003404
X003658
X003912
X004166
X004572
X004826
X00508
X005334
X005588
X005446Y004547
X005192
X00541Y00402
X00443Y004318
X00366Y00479
X003406
X003152
X002898
X002644
X0057Y004547
X005842Y00508
X006096
X00635
T03
X00359Y00212
X00401
X00443
Y00267
X00401
X00359
X00353Y00377
X00311
X00269
Y00432
X00311
X00353
T04
X00613Y00089
Y001398
Y001906
Y002414
Y002922
Y00343
Y003938
Y004446
M30
