%FSLAX42Y42*%
%MOMM*%
G71*
G01*
G75*
G04 Layer_Color=65535*
%ADD10R,1.00X1.10*%
%ADD11R,1.30X1.50*%
%ADD12O,1.70X0.60*%
%ADD13R,1.10X1.00*%
%ADD14R,1.20X0.60*%
G04:AMPARAMS|DCode=15|XSize=0.3mm|YSize=1.8mm|CornerRadius=0mm|HoleSize=0mm|Usage=FLASHONLY|Rotation=315.000|XOffset=0mm|YOffset=0mm|HoleType=Round|Shape=Round|*
%AMOVALD15*
21,1,1.50,0.30,0.00,0.00,45.0*
1,1,0.30,-0.53,-0.53*
1,1,0.30,0.53,0.53*
%
%ADD15OVALD15*%

G04:AMPARAMS|DCode=16|XSize=0.3mm|YSize=1.8mm|CornerRadius=0mm|HoleSize=0mm|Usage=FLASHONLY|Rotation=225.000|XOffset=0mm|YOffset=0mm|HoleType=Round|Shape=Round|*
%AMOVALD16*
21,1,1.50,0.30,0.00,0.00,315.0*
1,1,0.30,-0.53,0.53*
1,1,0.30,0.53,-0.53*
%
%ADD16OVALD16*%

%ADD17R,1.50X1.30*%
%ADD18C,0.60*%
%ADD19C,0.26*%
%ADD20C,1.20*%
%ADD21C,0.25*%
%ADD22C,0.70*%
%ADD23C,0.50*%
%ADD24C,1.50*%
%ADD25C,1.50*%
%ADD26O,4.00X2.50*%
%ADD27C,2.20*%
%ADD28C,1.70*%
%ADD29R,1.70X1.70*%
%ADD30R,1.78X1.78*%
%ADD31C,1.78*%
%ADD32C,0.90*%
%ADD33C,1.40*%
%ADD34R,2.90X1.68*%
G04:AMPARAMS|DCode=35|XSize=1mm|YSize=1.1mm|CornerRadius=0mm|HoleSize=0mm|Usage=FLASHONLY|Rotation=315.000|XOffset=0mm|YOffset=0mm|HoleType=Round|Shape=Rectangle|*
%AMROTATEDRECTD35*
4,1,4,-0.74,-0.04,0.04,0.74,0.74,0.04,-0.04,-0.74,-0.74,-0.04,0.0*
%
%ADD35ROTATEDRECTD35*%

G04:AMPARAMS|DCode=36|XSize=1mm|YSize=1.1mm|CornerRadius=0mm|HoleSize=0mm|Usage=FLASHONLY|Rotation=225.000|XOffset=0mm|YOffset=0mm|HoleType=Round|Shape=Rectangle|*
%AMROTATEDRECTD36*
4,1,4,-0.04,0.74,0.74,-0.04,0.04,-0.74,-0.74,0.04,-0.04,0.74,0.0*
%
%ADD36ROTATEDRECTD36*%

%ADD37C,0.25*%
%ADD38C,0.20*%
%ADD39C,0.40*%
D18*
X25311Y18926D02*
G03*
X25311Y18926I-30J0D01*
G01*
D19*
X26284Y20498D02*
Y21107D01*
X25878D02*
X26284D01*
X25878Y20500D02*
Y21107D01*
X25469Y20498D02*
Y20648D01*
X25762D01*
Y20500D02*
Y20648D01*
X26398Y20500D02*
Y20648D01*
X26690D01*
Y20498D02*
Y20648D01*
X24569Y20914D02*
Y21064D01*
Y20914D02*
X24862D01*
Y21063D01*
X25498Y20914D02*
Y21063D01*
Y20914D02*
X25790D01*
Y21064D01*
X25382Y20455D02*
Y21063D01*
X24976Y20455D02*
X25382D01*
X24976D02*
Y21064D01*
D21*
X23326Y21038D02*
Y22562D01*
X21510Y21038D02*
X23326D01*
X21510D02*
Y22562D01*
X23326D01*
X21510Y20982D02*
X23326D01*
X21510Y19458D02*
Y20982D01*
Y19458D02*
X23326D01*
Y20982D01*
Y17868D02*
Y19392D01*
X21510Y17868D02*
X23326D01*
X21510D02*
Y19392D01*
X23326D01*
X28035Y19213D02*
X29241D01*
X28035Y18197D02*
X29241D01*
X28035D02*
Y19213D01*
X29241Y18197D02*
Y19213D01*
Y20229D01*
X28035Y19213D02*
Y20229D01*
Y19213D02*
X29241D01*
X28035Y20229D02*
X29241D01*
X28035Y21245D02*
X29241D01*
X28035Y20229D02*
X29241D01*
X28035D02*
Y21245D01*
X29241Y20229D02*
Y21245D01*
Y22261D01*
X28035Y21245D02*
Y22261D01*
Y21245D02*
X29241D01*
X28035Y22261D02*
X29241D01*
X25469Y20498D02*
X26690D01*
X25469Y19414D02*
X26690D01*
X25469D02*
Y20498D01*
X26690Y19414D02*
Y20498D01*
X24569Y21064D02*
Y22148D01*
X25790Y21064D02*
Y22148D01*
X24569D02*
X25790D01*
X24569Y21064D02*
X25790D01*
X23513Y22478D02*
X24275D01*
X23513Y22224D02*
X24275D01*
Y22478D01*
X23513Y22224D02*
Y22478D01*
X26477Y18984D02*
Y19238D01*
X25715Y18984D02*
Y19238D01*
X26477D01*
X25715Y18984D02*
X26477D01*
X27135Y18933D02*
X27897D01*
X27135Y19187D02*
X27897D01*
X27135Y18933D02*
Y19187D01*
X27897Y18933D02*
Y19187D01*
Y19949D02*
Y20203D01*
X27135Y19949D02*
Y20203D01*
X27897D01*
X27135Y19949D02*
X27897D01*
X27135Y20965D02*
X27897D01*
X27135Y21219D02*
X27897D01*
X27135Y20965D02*
Y21219D01*
X27897Y20965D02*
Y21219D01*
Y21981D02*
Y22235D01*
X27135Y21981D02*
Y22235D01*
X27897D01*
X27135Y21981D02*
X27897D01*
X25603Y18378D02*
X26619D01*
X25603Y18124D02*
X26619D01*
Y18378D01*
X25603Y18124D02*
Y18378D01*
X25857Y22224D02*
Y22478D01*
X24587Y22224D02*
Y22478D01*
X25857D01*
X24587Y22224D02*
X25857D01*
D37*
X27297Y21799D02*
G03*
X27297Y21799I-12J0D01*
G01*
Y20783D02*
G03*
X27297Y20783I-12J0D01*
G01*
Y19767D02*
G03*
X27297Y19767I-12J0D01*
G01*
Y18751D02*
G03*
X27297Y18751I-12J0D01*
G01*
X24176Y21297D02*
G03*
X24176Y21297I-12J0D01*
G01*
X23809D02*
G03*
X23809Y21297I-12J0D01*
G01*
X25577Y18968D02*
G03*
X25577Y18968I-12J0D01*
G01*
D38*
X27130Y21814D02*
Y21944D01*
X27530Y21713D02*
X27590Y21773D01*
X27470D02*
X27530Y21713D01*
X27410Y21273D02*
X27650D01*
X27410Y21773D02*
X27650D01*
Y21273D02*
Y21773D01*
X27410Y21273D02*
Y21773D01*
X27530Y20697D02*
X27590Y20757D01*
X27470D02*
X27530Y20697D01*
X27410Y20257D02*
X27650D01*
X27410Y20757D02*
X27650D01*
Y20257D02*
Y20757D01*
X27410Y20257D02*
Y20757D01*
X27130Y20796D02*
Y20926D01*
Y19776D02*
Y19906D01*
X27530Y19681D02*
X27590Y19741D01*
X27470D02*
X27530Y19681D01*
X27410Y19241D02*
X27650D01*
X27410Y19741D02*
X27650D01*
Y19241D02*
Y19741D01*
X27410Y19241D02*
Y19741D01*
X27530Y18665D02*
X27590Y18725D01*
X27470D02*
X27530Y18665D01*
X27410Y18225D02*
X27650D01*
X27410Y18725D02*
X27650D01*
Y18225D02*
Y18725D01*
X27410Y18225D02*
Y18725D01*
X27130Y18766D02*
Y18896D01*
X24004Y21627D02*
X24004Y21547D01*
X24004Y21627D02*
X24064D01*
X24004Y21327D02*
X24004Y21407D01*
X24004Y21327D02*
X24064D01*
X23636Y21627D02*
X23636Y21547D01*
X23636Y21627D02*
X23696Y21627D01*
X23636Y21407D02*
X23636Y21327D01*
X23696D01*
X25034Y19315D02*
X25423Y18926D01*
X24645D02*
X25034Y18537D01*
X25423Y18926D01*
X24645D02*
X25034Y19315D01*
X24840Y20831D02*
X24920D01*
X25020Y20831D02*
X25100D01*
X25165Y20601D02*
X25295D01*
X24635D02*
X24765D01*
X25847Y19364D02*
X25830Y19381D01*
X25797D01*
X25780Y19364D01*
Y19298D01*
X25797Y19281D01*
X25830D01*
X25847Y19298D01*
X25880Y19281D02*
X25913D01*
X25897D01*
Y19381D01*
X25880Y19364D01*
X24157Y20858D02*
X24140Y20841D01*
Y20808D01*
X24157Y20791D01*
X24223D01*
X24240Y20808D01*
Y20841D01*
X24223Y20858D01*
X24140Y20891D02*
Y20958D01*
X24157D01*
X24223Y20891D01*
X24240D01*
X23767Y20858D02*
X23750Y20841D01*
Y20808D01*
X23767Y20791D01*
X23833D01*
X23850Y20808D01*
Y20841D01*
X23833Y20858D01*
Y20891D02*
X23850Y20908D01*
Y20941D01*
X23833Y20958D01*
X23767D01*
X23750Y20941D01*
Y20908D01*
X23767Y20891D01*
X23783D01*
X23800Y20908D01*
Y20958D01*
X24489Y19322D02*
X24560Y19251D01*
X24595Y19286D01*
Y19310D01*
X24548Y19357D01*
X24525D01*
X24489Y19322D01*
X24560Y19392D02*
X24631Y19322D01*
X24666Y19357D01*
Y19381D01*
X24619Y19428D01*
X24595Y19428D01*
X24560Y19392D01*
X24701D02*
X24725Y19416D01*
X24713Y19404D01*
X24642Y19475D01*
Y19451D01*
X27540Y21821D02*
Y21921D01*
X27590D01*
X27607Y21904D01*
Y21871D01*
X27590Y21854D01*
X27540D01*
X27573D02*
X27607Y21821D01*
X27640Y21904D02*
X27657Y21921D01*
X27690D01*
X27707Y21904D01*
Y21888D01*
X27690Y21871D01*
X27673D01*
X27690D01*
X27707Y21854D01*
Y21838D01*
X27690Y21821D01*
X27657D01*
X27640Y21838D01*
X27530Y20811D02*
Y20911D01*
X27580D01*
X27597Y20894D01*
Y20861D01*
X27580Y20844D01*
X27530D01*
X27563D02*
X27597Y20811D01*
X27680D02*
Y20911D01*
X27630Y20861D01*
X27697D01*
X27530Y19791D02*
Y19891D01*
X27580D01*
X27597Y19874D01*
Y19841D01*
X27580Y19824D01*
X27530D01*
X27563D02*
X27597Y19791D01*
X27697Y19891D02*
X27630D01*
Y19841D01*
X27663Y19858D01*
X27680D01*
X27697Y19841D01*
Y19808D01*
X27680Y19791D01*
X27647D01*
X27630Y19808D01*
X27540Y18771D02*
Y18871D01*
X27590D01*
X27607Y18854D01*
Y18821D01*
X27590Y18804D01*
X27540D01*
X27573D02*
X27607Y18771D01*
X27707Y18871D02*
X27673Y18854D01*
X27640Y18821D01*
Y18788D01*
X27657Y18771D01*
X27690D01*
X27707Y18788D01*
Y18804D01*
X27690Y18821D01*
X27640D01*
X27020Y21261D02*
X26920D01*
Y21311D01*
X26937Y21328D01*
X26970D01*
X26987Y21311D01*
Y21261D01*
Y21294D02*
X27020Y21328D01*
X26920Y21361D02*
Y21428D01*
X26937D01*
X27003Y21361D01*
X27020D01*
X27010Y20231D02*
X26910D01*
Y20281D01*
X26927Y20298D01*
X26960D01*
X26977Y20281D01*
Y20231D01*
Y20264D02*
X27010Y20298D01*
X26927Y20331D02*
X26910Y20348D01*
Y20381D01*
X26927Y20398D01*
X26943D01*
X26960Y20381D01*
X26977Y20398D01*
X26993D01*
X27010Y20381D01*
Y20348D01*
X26993Y20331D01*
X26977D01*
X26960Y20348D01*
X26943Y20331D01*
X26927D01*
X26960Y20348D02*
Y20381D01*
X27020Y19221D02*
X26920D01*
Y19271D01*
X26937Y19288D01*
X26970D01*
X26987Y19271D01*
Y19221D01*
Y19254D02*
X27020Y19288D01*
X27003Y19321D02*
X27020Y19338D01*
Y19371D01*
X27003Y19388D01*
X26937D01*
X26920Y19371D01*
Y19338D01*
X26937Y19321D01*
X26953D01*
X26970Y19338D01*
Y19388D01*
X27010Y18121D02*
X26910D01*
Y18171D01*
X26927Y18188D01*
X26960D01*
X26977Y18171D01*
Y18121D01*
Y18154D02*
X27010Y18188D01*
Y18221D02*
Y18254D01*
Y18238D01*
X26910D01*
X26927Y18221D01*
Y18304D02*
X26910Y18321D01*
Y18354D01*
X26927Y18371D01*
X26993D01*
X27010Y18354D01*
Y18321D01*
X26993Y18304D01*
X26927D01*
X26850Y21516D02*
X26750D01*
Y21566D01*
X26767Y21583D01*
X26800D01*
X26817Y21566D01*
Y21516D01*
Y21549D02*
X26850Y21583D01*
Y21616D02*
Y21649D01*
Y21633D01*
X26750D01*
X26767Y21616D01*
X26850Y21699D02*
Y21733D01*
Y21716D01*
X26750D01*
X26767Y21699D01*
X26860Y20451D02*
X26760D01*
Y20501D01*
X26777Y20518D01*
X26810D01*
X26827Y20501D01*
Y20451D01*
Y20484D02*
X26860Y20518D01*
Y20551D02*
Y20584D01*
Y20568D01*
X26760D01*
X26777Y20551D01*
X26860Y20701D02*
Y20634D01*
X26793Y20701D01*
X26777D01*
X26760Y20684D01*
Y20651D01*
X26777Y20634D01*
X26860Y19441D02*
X26760D01*
Y19491D01*
X26777Y19508D01*
X26810D01*
X26827Y19491D01*
Y19441D01*
Y19474D02*
X26860Y19508D01*
Y19541D02*
Y19574D01*
Y19558D01*
X26760D01*
X26777Y19541D01*
Y19624D02*
X26760Y19641D01*
Y19674D01*
X26777Y19691D01*
X26793D01*
X26810Y19674D01*
Y19658D01*
Y19674D01*
X26827Y19691D01*
X26843D01*
X26860Y19674D01*
Y19641D01*
X26843Y19624D01*
X26870Y18411D02*
X26770D01*
Y18461D01*
X26787Y18478D01*
X26820D01*
X26837Y18461D01*
Y18411D01*
Y18444D02*
X26870Y18478D01*
Y18511D02*
Y18544D01*
Y18528D01*
X26770D01*
X26787Y18511D01*
X26870Y18644D02*
X26770D01*
X26820Y18594D01*
Y18661D01*
X23340Y22621D02*
X23240D01*
Y22671D01*
X23257Y22688D01*
X23290D01*
X23307Y22671D01*
Y22621D01*
Y22654D02*
X23340Y22688D01*
Y22721D02*
Y22754D01*
Y22738D01*
X23240D01*
X23257Y22721D01*
X23240Y22871D02*
Y22804D01*
X23290D01*
X23273Y22838D01*
Y22854D01*
X23290Y22871D01*
X23323D01*
X23340Y22854D01*
Y22821D01*
X23323Y22804D01*
X23480Y22621D02*
X23380D01*
Y22671D01*
X23397Y22688D01*
X23430D01*
X23447Y22671D01*
Y22621D01*
Y22654D02*
X23480Y22688D01*
Y22721D02*
Y22754D01*
Y22738D01*
X23380D01*
X23397Y22721D01*
X23380Y22871D02*
X23397Y22838D01*
X23430Y22804D01*
X23463D01*
X23480Y22821D01*
Y22854D01*
X23463Y22871D01*
X23447D01*
X23430Y22854D01*
Y22804D01*
X24171Y21662D02*
X24071D01*
Y21712D01*
X24088Y21729D01*
X24121D01*
X24138Y21712D01*
Y21662D01*
Y21696D02*
X24171Y21729D01*
Y21829D02*
Y21762D01*
X24105Y21829D01*
X24088D01*
X24071Y21812D01*
Y21779D01*
X24088Y21762D01*
Y21862D02*
X24071Y21879D01*
Y21912D01*
X24088Y21929D01*
X24155D01*
X24171Y21912D01*
Y21879D01*
X24155Y21862D01*
X24088D01*
X23820Y21651D02*
X23720D01*
Y21701D01*
X23737Y21718D01*
X23770D01*
X23787Y21701D01*
Y21651D01*
Y21684D02*
X23820Y21718D01*
Y21818D02*
Y21751D01*
X23753Y21818D01*
X23737D01*
X23720Y21801D01*
Y21768D01*
X23737Y21751D01*
X23820Y21918D02*
Y21851D01*
X23753Y21918D01*
X23737D01*
X23720Y21901D01*
Y21868D01*
X23737Y21851D01*
X24038Y20693D02*
X23938D01*
Y20743D01*
X23955Y20759D01*
X23988D01*
X24005Y20743D01*
Y20693D01*
Y20726D02*
X24038Y20759D01*
Y20859D02*
Y20793D01*
X23972Y20859D01*
X23955D01*
X23938Y20843D01*
Y20809D01*
X23955Y20793D01*
X24038Y20943D02*
X23938D01*
X23988Y20893D01*
Y20959D01*
X23680Y20681D02*
X23580D01*
Y20731D01*
X23597Y20748D01*
X23630D01*
X23647Y20731D01*
Y20681D01*
Y20714D02*
X23680Y20748D01*
Y20848D02*
Y20781D01*
X23613Y20848D01*
X23597D01*
X23580Y20831D01*
Y20798D01*
X23597Y20781D01*
X23580Y20948D02*
X23597Y20914D01*
X23630Y20881D01*
X23663D01*
X23680Y20898D01*
Y20931D01*
X23663Y20948D01*
X23647D01*
X23630Y20931D01*
Y20881D01*
X23800Y19661D02*
X23700D01*
Y19711D01*
X23717Y19728D01*
X23750D01*
X23767Y19711D01*
Y19661D01*
Y19694D02*
X23800Y19728D01*
Y19828D02*
Y19761D01*
X23733Y19828D01*
X23717D01*
X23700Y19811D01*
Y19778D01*
X23717Y19761D01*
X23700Y19861D02*
Y19928D01*
X23717D01*
X23783Y19861D01*
X23800D01*
X23650Y19661D02*
X23550D01*
Y19711D01*
X23567Y19728D01*
X23600D01*
X23617Y19711D01*
Y19661D01*
Y19694D02*
X23650Y19728D01*
Y19828D02*
Y19761D01*
X23583Y19828D01*
X23567D01*
X23550Y19811D01*
Y19778D01*
X23567Y19761D01*
Y19861D02*
X23550Y19878D01*
Y19911D01*
X23567Y19928D01*
X23583D01*
X23600Y19911D01*
X23617Y19928D01*
X23633D01*
X23650Y19911D01*
Y19878D01*
X23633Y19861D01*
X23617D01*
X23600Y19878D01*
X23583Y19861D01*
X23567D01*
X23600Y19878D02*
Y19911D01*
X23510Y19661D02*
X23410D01*
Y19711D01*
X23427Y19728D01*
X23460D01*
X23477Y19711D01*
Y19661D01*
Y19694D02*
X23510Y19728D01*
Y19828D02*
Y19761D01*
X23443Y19828D01*
X23427D01*
X23410Y19811D01*
Y19778D01*
X23427Y19761D01*
X23493Y19861D02*
X23510Y19878D01*
Y19911D01*
X23493Y19928D01*
X23427D01*
X23410Y19911D01*
Y19878D01*
X23427Y19861D01*
X23443D01*
X23460Y19878D01*
Y19928D01*
X26630Y21641D02*
X26697D01*
X26730Y21674D01*
X26697Y21708D01*
X26630D01*
Y21741D02*
X26730D01*
Y21791D01*
X26713Y21808D01*
X26647D01*
X26630Y21791D01*
Y21741D01*
X26730Y21841D02*
Y21874D01*
Y21858D01*
X26630D01*
X26647Y21841D01*
X26640Y20781D02*
X26707D01*
X26740Y20814D01*
X26707Y20848D01*
X26640D01*
Y20881D02*
X26740D01*
Y20931D01*
X26723Y20948D01*
X26657D01*
X26640Y20931D01*
Y20881D01*
X26740Y21048D02*
Y20981D01*
X26673Y21048D01*
X26657D01*
X26640Y21031D01*
Y20998D01*
X26657Y20981D01*
X26810Y20051D02*
Y19984D01*
X26843Y19951D01*
X26877Y19984D01*
Y20051D01*
X26910D02*
Y19951D01*
X26960D01*
X26977Y19968D01*
Y20034D01*
X26960Y20051D01*
X26910D01*
X27010Y20034D02*
X27027Y20051D01*
X27060D01*
X27077Y20034D01*
Y20018D01*
X27060Y20001D01*
X27043D01*
X27060D01*
X27077Y19984D01*
Y19968D01*
X27060Y19951D01*
X27027D01*
X27010Y19968D01*
X26640Y18681D02*
X26707D01*
X26740Y18714D01*
X26707Y18748D01*
X26640D01*
Y18781D02*
X26740D01*
Y18831D01*
X26723Y18848D01*
X26657D01*
X26640Y18831D01*
Y18781D01*
X26740Y18931D02*
X26640D01*
X26690Y18881D01*
Y18948D01*
X24280Y21321D02*
X24347D01*
X24380Y21354D01*
X24347Y21388D01*
X24280D01*
Y21421D02*
X24380D01*
Y21471D01*
X24363Y21488D01*
X24297D01*
X24280Y21471D01*
Y21421D01*
X24380Y21521D02*
Y21554D01*
Y21538D01*
X24280D01*
X24297Y21521D01*
Y21604D02*
X24280Y21621D01*
Y21654D01*
X24297Y21671D01*
X24363D01*
X24380Y21654D01*
Y21621D01*
X24363Y21604D01*
X24297D01*
X23410Y21281D02*
X23477D01*
X23510Y21314D01*
X23477Y21348D01*
X23410D01*
Y21381D02*
X23510D01*
Y21431D01*
X23493Y21448D01*
X23427D01*
X23410Y21431D01*
Y21381D01*
X23510Y21481D02*
Y21514D01*
Y21498D01*
X23410D01*
X23427Y21481D01*
X23510Y21631D02*
Y21564D01*
X23443Y21631D01*
X23427D01*
X23410Y21614D01*
Y21581D01*
X23427Y21564D01*
X27470Y21403D02*
X27537D01*
X27570Y21437D01*
X27537Y21470D01*
X27470D01*
Y21503D02*
Y21570D01*
Y21537D01*
X27570D01*
Y21603D02*
Y21637D01*
Y21620D01*
X27470D01*
X27487Y21603D01*
X27490Y20377D02*
X27557D01*
X27590Y20411D01*
X27557Y20444D01*
X27490D01*
Y20477D02*
Y20544D01*
Y20511D01*
X27590D01*
Y20644D02*
Y20577D01*
X27523Y20644D01*
X27507D01*
X27490Y20627D01*
Y20594D01*
X27507Y20577D01*
X27440Y19361D02*
X27507D01*
X27540Y19395D01*
X27507Y19428D01*
X27440D01*
Y19461D02*
Y19528D01*
Y19495D01*
X27540D01*
X27457Y19561D02*
X27440Y19578D01*
Y19611D01*
X27457Y19628D01*
X27473D01*
X27490Y19611D01*
Y19595D01*
Y19611D01*
X27507Y19628D01*
X27523D01*
X27540Y19611D01*
Y19578D01*
X27523Y19561D01*
X27460Y18335D02*
X27527D01*
X27560Y18369D01*
X27527Y18402D01*
X27460D01*
Y18435D02*
Y18502D01*
Y18469D01*
X27560D01*
Y18585D02*
X27460D01*
X27510Y18535D01*
Y18602D01*
X25610Y18561D02*
X25677Y18461D01*
Y18561D02*
X25610Y18461D01*
X25710D02*
Y18561D01*
X25760D01*
X25777Y18544D01*
Y18511D01*
X25760Y18494D01*
X25710D01*
X25810Y18461D02*
X25843D01*
X25827D01*
Y18561D01*
X25810Y18544D01*
X26820Y22148D02*
X26887Y22048D01*
Y22148D02*
X26820Y22048D01*
X26920D02*
Y22148D01*
X26970D01*
X26987Y22131D01*
Y22098D01*
X26970Y22081D01*
X26920D01*
X27087Y22048D02*
X27020D01*
X27087Y22114D01*
Y22131D01*
X27070Y22148D01*
X27037D01*
X27020Y22131D01*
X26830Y21141D02*
X26897Y21041D01*
Y21141D02*
X26830Y21041D01*
X26930D02*
Y21141D01*
X26980D01*
X26997Y21124D01*
Y21091D01*
X26980Y21074D01*
X26930D01*
X27030Y21124D02*
X27047Y21141D01*
X27080D01*
X27097Y21124D01*
Y21108D01*
X27080Y21091D01*
X27063D01*
X27080D01*
X27097Y21074D01*
Y21058D01*
X27080Y21041D01*
X27047D01*
X27030Y21058D01*
X26840Y20181D02*
X26907Y20081D01*
Y20181D02*
X26840Y20081D01*
X26940D02*
Y20181D01*
X26990D01*
X27007Y20164D01*
Y20131D01*
X26990Y20114D01*
X26940D01*
X27090Y20081D02*
Y20181D01*
X27040Y20131D01*
X27107D01*
X26830Y19101D02*
X26897Y19001D01*
Y19101D02*
X26830Y19001D01*
X26930D02*
Y19101D01*
X26980D01*
X26997Y19084D01*
Y19051D01*
X26980Y19034D01*
X26930D01*
X27097Y19101D02*
X27030D01*
Y19051D01*
X27063Y19068D01*
X27080D01*
X27097Y19051D01*
Y19018D01*
X27080Y19001D01*
X27047D01*
X27030Y19018D01*
X26230Y18911D02*
X26297Y18811D01*
Y18911D02*
X26230Y18811D01*
X26330D02*
Y18911D01*
X26380D01*
X26397Y18894D01*
Y18861D01*
X26380Y18844D01*
X26330D01*
X26497Y18911D02*
X26463Y18894D01*
X26430Y18861D01*
Y18828D01*
X26447Y18811D01*
X26480D01*
X26497Y18828D01*
Y18844D01*
X26480Y18861D01*
X26430D01*
X25840Y21221D02*
X25940Y21288D01*
X25840D02*
X25940Y21221D01*
Y21321D02*
X25840D01*
Y21371D01*
X25857Y21388D01*
X25890D01*
X25907Y21371D01*
Y21321D01*
X25840Y21421D02*
Y21488D01*
X25857D01*
X25923Y21421D01*
X25940D01*
X27900Y21587D02*
X28000Y21654D01*
X27900D02*
X28000Y21587D01*
Y21687D02*
X27900D01*
Y21737D01*
X27917Y21754D01*
X27950D01*
X27967Y21737D01*
Y21687D01*
X27917Y21787D02*
X27900Y21804D01*
Y21837D01*
X27917Y21854D01*
X27933D01*
X27950Y21837D01*
X27967Y21854D01*
X27983D01*
X28000Y21837D01*
Y21804D01*
X27983Y21787D01*
X27967D01*
X27950Y21804D01*
X27933Y21787D01*
X27917D01*
X27950Y21804D02*
Y21837D01*
X27900Y20571D02*
X28000Y20638D01*
X27900D02*
X28000Y20571D01*
Y20671D02*
X27900D01*
Y20721D01*
X27917Y20738D01*
X27950D01*
X27967Y20721D01*
Y20671D01*
X27983Y20771D02*
X28000Y20788D01*
Y20821D01*
X27983Y20838D01*
X27917D01*
X27900Y20821D01*
Y20788D01*
X27917Y20771D01*
X27933D01*
X27950Y20788D01*
Y20838D01*
X27890Y19519D02*
X27990Y19586D01*
X27890D02*
X27990Y19519D01*
Y19619D02*
X27890D01*
Y19669D01*
X27906Y19685D01*
X27940D01*
X27956Y19669D01*
Y19619D01*
X27990Y19719D02*
Y19752D01*
Y19735D01*
X27890D01*
X27906Y19719D01*
Y19802D02*
X27890Y19819D01*
Y19852D01*
X27906Y19869D01*
X27973D01*
X27990Y19852D01*
Y19819D01*
X27973Y19802D01*
X27906D01*
X27896Y18519D02*
X27996Y18586D01*
X27896D02*
X27996Y18519D01*
Y18619D02*
X27896D01*
Y18669D01*
X27913Y18686D01*
X27946D01*
X27963Y18669D01*
Y18619D01*
X27996Y18719D02*
Y18753D01*
Y18736D01*
X27896D01*
X27913Y18719D01*
X27996Y18803D02*
Y18836D01*
Y18819D01*
X27896D01*
X27913Y18803D01*
X23830Y22181D02*
X23897Y22081D01*
Y22181D02*
X23830Y22081D01*
X23930D02*
Y22181D01*
X23980D01*
X23997Y22164D01*
Y22131D01*
X23980Y22114D01*
X23930D01*
X24030Y22081D02*
X24063D01*
X24047D01*
Y22181D01*
X24030Y22164D01*
X24180Y22081D02*
X24113D01*
X24180Y22148D01*
Y22164D01*
X24163Y22181D01*
X24130D01*
X24113Y22164D01*
X25910Y20671D02*
X25977Y20571D01*
Y20671D02*
X25910Y20571D01*
X26010D02*
Y20671D01*
X26060D01*
X26077Y20654D01*
Y20621D01*
X26060Y20604D01*
X26010D01*
X26110Y20571D02*
X26143D01*
X26127D01*
Y20671D01*
X26110Y20654D01*
X26193D02*
X26210Y20671D01*
X26243D01*
X26260Y20654D01*
Y20638D01*
X26243Y20621D01*
X26227D01*
X26243D01*
X26260Y20604D01*
Y20588D01*
X26243Y20571D01*
X26210D01*
X26193Y20588D01*
X25960Y22411D02*
X26027Y22311D01*
Y22411D02*
X25960Y22311D01*
X26060D02*
Y22411D01*
X26110D01*
X26127Y22394D01*
Y22361D01*
X26110Y22344D01*
X26060D01*
X26160Y22311D02*
X26193D01*
X26177D01*
Y22411D01*
X26160Y22394D01*
X26293Y22311D02*
Y22411D01*
X26243Y22361D01*
X26310D01*
X23370Y19001D02*
X23470Y19068D01*
X23370D02*
X23470Y19001D01*
X23387Y19168D02*
X23370Y19151D01*
Y19118D01*
X23387Y19101D01*
X23403D01*
X23420Y19118D01*
Y19151D01*
X23437Y19168D01*
X23453D01*
X23470Y19151D01*
Y19118D01*
X23453Y19101D01*
X23470Y19201D02*
Y19234D01*
Y19218D01*
X23370D01*
X23387Y19201D01*
X23380Y20551D02*
X23480Y20618D01*
X23380D02*
X23480Y20551D01*
X23397Y20718D02*
X23380Y20701D01*
Y20668D01*
X23397Y20651D01*
X23413D01*
X23430Y20668D01*
Y20701D01*
X23447Y20718D01*
X23463D01*
X23480Y20701D01*
Y20668D01*
X23463Y20651D01*
X23480Y20818D02*
Y20751D01*
X23413Y20818D01*
X23397D01*
X23380Y20801D01*
Y20768D01*
X23397Y20751D01*
X23370Y22281D02*
X23470Y22348D01*
X23370D02*
X23470Y22281D01*
X23387Y22448D02*
X23370Y22431D01*
Y22398D01*
X23387Y22381D01*
X23403D01*
X23420Y22398D01*
Y22431D01*
X23437Y22448D01*
X23453D01*
X23470Y22431D01*
Y22398D01*
X23453Y22381D01*
X23387Y22481D02*
X23370Y22498D01*
Y22531D01*
X23387Y22548D01*
X23403D01*
X23420Y22531D01*
Y22514D01*
Y22531D01*
X23437Y22548D01*
X23453D01*
X23470Y22531D01*
Y22498D01*
X23453Y22481D01*
X24950Y19871D02*
X24850D01*
Y19921D01*
X24867Y19938D01*
X24900D01*
X24917Y19921D01*
Y19871D01*
Y19904D02*
X24950Y19938D01*
X24867Y19971D02*
X24850Y19988D01*
Y20021D01*
X24867Y20038D01*
X24883D01*
X24900Y20021D01*
Y20004D01*
Y20021D01*
X24917Y20038D01*
X24933D01*
X24950Y20021D01*
Y19988D01*
X24933Y19971D01*
X24950Y20071D02*
Y20104D01*
Y20088D01*
X24850D01*
X24867Y20071D01*
X25100Y19871D02*
X25000D01*
Y19921D01*
X25017Y19938D01*
X25050D01*
X25067Y19921D01*
Y19871D01*
Y19904D02*
X25100Y19938D01*
X25017Y19971D02*
X25000Y19988D01*
Y20021D01*
X25017Y20038D01*
X25033D01*
X25050Y20021D01*
Y20004D01*
Y20021D01*
X25067Y20038D01*
X25083D01*
X25100Y20021D01*
Y19988D01*
X25083Y19971D01*
X25100Y20138D02*
Y20071D01*
X25033Y20138D01*
X25017D01*
X25000Y20121D01*
Y20088D01*
X25017Y20071D01*
X24330Y20561D02*
X24363D01*
X24347D01*
Y20661D01*
X24330Y20644D01*
X24480Y20561D02*
X24413D01*
X24480Y20628D01*
Y20644D01*
X24463Y20661D01*
X24430D01*
X24413Y20644D01*
X24513Y20661D02*
Y20594D01*
X24547Y20561D01*
X24580Y20594D01*
Y20661D01*
X25237Y20571D02*
X25170D01*
Y20521D01*
X25203Y20538D01*
X25220D01*
X25237Y20521D01*
Y20488D01*
X25220Y20471D01*
X25187D01*
X25170Y20488D01*
X25270Y20571D02*
Y20504D01*
X25303Y20471D01*
X25337Y20504D01*
Y20571D01*
D39*
X23482Y22199D02*
X23770D01*
X23482D02*
Y22501D01*
X23512D01*
X23770D01*
Y22199D02*
Y22501D01*
X26220Y18961D02*
Y19264D01*
Y18961D02*
X26477D01*
X26507D01*
Y19264D01*
X26220D02*
X26507D01*
X27640Y19212D02*
X27927D01*
Y18910D02*
Y19212D01*
X27897Y18910D02*
X27927D01*
X27640D02*
X27897D01*
X27640D02*
Y19212D01*
Y19926D02*
Y20228D01*
Y19926D02*
X27897D01*
X27927D01*
Y20228D01*
X27640D02*
X27927D01*
X27640Y21244D02*
X27927D01*
Y20942D02*
Y21244D01*
X27897Y20942D02*
X27927D01*
X27640D02*
X27897D01*
X27640D02*
Y21244D01*
Y21958D02*
Y22260D01*
Y21958D02*
X27897D01*
X27927D01*
Y22260D01*
X27640D02*
X27927D01*
X25572Y18099D02*
X25860D01*
X25572D02*
Y18401D01*
X25602D01*
X25860D01*
Y18099D02*
Y18401D01*
X25600Y22201D02*
Y22504D01*
Y22201D02*
X25857D01*
X25887D01*
Y22504D01*
X25600D02*
X25887D01*
M02*
