%FSLAX42Y42*%
%MOMM*%
G71*
G01*
G75*
G04 Layer_Physical_Order=2*
G04 Layer_Color=16711680*
%ADD10R,1.00X1.10*%
%ADD11R,1.30X1.50*%
%ADD12O,1.70X0.60*%
%ADD13R,1.10X1.00*%
%ADD14R,1.20X0.60*%
G04:AMPARAMS|DCode=15|XSize=0.3mm|YSize=1.8mm|CornerRadius=0mm|HoleSize=0mm|Usage=FLASHONLY|Rotation=315.000|XOffset=0mm|YOffset=0mm|HoleType=Round|Shape=Round|*
%AMOVALD15*
21,1,1.50,0.30,0.00,0.00,45.0*
1,1,0.30,-0.53,-0.53*
1,1,0.30,0.53,0.53*
%
%ADD15OVALD15*%

G04:AMPARAMS|DCode=16|XSize=0.3mm|YSize=1.8mm|CornerRadius=0mm|HoleSize=0mm|Usage=FLASHONLY|Rotation=225.000|XOffset=0mm|YOffset=0mm|HoleType=Round|Shape=Round|*
%AMOVALD16*
21,1,1.50,0.30,0.00,0.00,315.0*
1,1,0.30,-0.53,0.53*
1,1,0.30,0.53,-0.53*
%
%ADD16OVALD16*%

%ADD17R,1.50X1.30*%
%ADD18C,0.60*%
%ADD19C,0.26*%
%ADD20C,1.20*%
%ADD21C,0.25*%
%ADD22C,0.70*%
%ADD23C,0.50*%
%ADD24C,1.50*%
%ADD25C,1.50*%
%ADD26O,4.00X2.50*%
%ADD27C,2.20*%
%ADD28C,1.70*%
%ADD29R,1.70X1.70*%
%ADD30R,1.78X1.78*%
%ADD31C,1.78*%
%ADD32C,0.90*%
%ADD33C,1.40*%
%ADD34R,2.90X1.68*%
G04:AMPARAMS|DCode=35|XSize=1mm|YSize=1.1mm|CornerRadius=0mm|HoleSize=0mm|Usage=FLASHONLY|Rotation=315.000|XOffset=0mm|YOffset=0mm|HoleType=Round|Shape=Rectangle|*
%AMROTATEDRECTD35*
4,1,4,-0.74,-0.04,0.04,0.74,0.74,0.04,-0.04,-0.74,-0.74,-0.04,0.0*
%
%ADD35ROTATEDRECTD35*%

G04:AMPARAMS|DCode=36|XSize=1mm|YSize=1.1mm|CornerRadius=0mm|HoleSize=0mm|Usage=FLASHONLY|Rotation=225.000|XOffset=0mm|YOffset=0mm|HoleType=Round|Shape=Rectangle|*
%AMROTATEDRECTD36*
4,1,4,-0.04,0.74,0.74,-0.04,0.04,-0.74,-0.74,0.04,-0.04,0.74,0.0*
%
%ADD36ROTATEDRECTD36*%

D10*
X24440Y21956D02*
D03*
Y21786D02*
D03*
X24260Y21956D02*
D03*
X24260Y21786D02*
D03*
X23470Y19556D02*
D03*
Y19386D02*
D03*
X23610Y19556D02*
D03*
Y19386D02*
D03*
X23750Y19556D02*
D03*
Y19386D02*
D03*
X23440Y21866D02*
D03*
X23440Y21696D02*
D03*
X24180Y21226D02*
D03*
X24180Y21056D02*
D03*
X23990Y21056D02*
D03*
Y21226D02*
D03*
X23440Y21226D02*
D03*
X23440Y21056D02*
D03*
X23620Y21056D02*
D03*
X23620Y21226D02*
D03*
D13*
X23625Y21871D02*
D03*
X23795D02*
D03*
D14*
X24164Y21477D02*
D03*
X23984Y21572D02*
D03*
Y21382D02*
D03*
X23796Y21477D02*
D03*
X23616Y21572D02*
D03*
Y21382D02*
D03*
D19*
X23750Y19556D02*
Y19671D01*
X23610Y19556D02*
Y19671D01*
X23470D02*
X23470Y19671D01*
Y19556D02*
Y19671D01*
X23810Y22641D02*
X23950D01*
X23640Y22471D02*
X23810Y22641D01*
X24184D02*
X24204D01*
X23894Y22351D02*
X24184Y22641D01*
X25585Y18947D02*
Y18968D01*
X23703Y21572D02*
X23706Y21569D01*
X23616Y21572D02*
X23703D01*
X24081Y21583D02*
Y21583D01*
X23995Y21583D02*
X24081D01*
X23984Y21572D02*
X23995Y21583D01*
X23706Y21569D02*
X23709Y21572D01*
X22945Y22244D02*
X23407D01*
X23640Y22351D02*
Y22471D01*
X23616Y21382D02*
X23696D01*
X23894Y22351D02*
X24064Y22181D01*
X23640Y22311D02*
Y22351D01*
Y22311D02*
X23870Y22081D01*
X24966Y22641D02*
X25116Y22491D01*
X25590D02*
X25730Y22351D01*
X25116Y22491D02*
X25590D01*
X25520Y18871D02*
Y18903D01*
X25585Y18968D01*
X25197Y18728D02*
X25203D01*
X25290Y18641D01*
X25410Y18521D02*
X25760D01*
X25984Y18297D01*
Y18251D02*
Y18297D01*
X25640Y18751D02*
X26280D01*
X26492Y18539D01*
Y18251D02*
Y18539D01*
X22945Y21990D02*
X23401D01*
X23440Y21951D01*
Y21866D02*
Y21951D01*
X23440Y21226D02*
X23440Y21226D01*
X23444Y21477D02*
X23796D01*
X23440Y21226D02*
Y21696D01*
X23407Y22244D02*
X23625Y22026D01*
Y21871D02*
Y22026D01*
X23795Y21871D02*
X24000D01*
X24164Y21707D01*
Y21477D02*
Y21707D01*
X23984Y21382D02*
X24070D01*
X23440Y21056D02*
X23620D01*
X23990Y21056D02*
X24180D01*
X24164Y21242D02*
Y21477D01*
X24064Y22181D02*
X24350D01*
X24440Y22091D01*
Y21956D02*
Y22091D01*
X23870Y22081D02*
X24220D01*
X24260Y22041D01*
Y21956D02*
Y22041D01*
X24260Y21681D02*
Y21786D01*
Y21681D02*
X24340Y21601D01*
X23670Y20911D02*
X23800D01*
X23620Y20961D02*
X23670Y20911D01*
X23620Y20961D02*
Y21056D01*
X24180Y20921D02*
X24190Y20911D01*
X24180Y20921D02*
Y21056D01*
X23470Y19386D02*
X23610D01*
X23750D01*
X24330Y22491D02*
X24700Y22121D01*
X25180D01*
X25274Y18926D02*
X25274Y18926D01*
X24740Y18921D02*
Y18931D01*
Y18871D02*
Y18921D01*
X24700Y18831D02*
X24740Y18871D01*
X25320Y18051D02*
X25420Y18151D01*
X24480D02*
X25260D01*
X24250Y18381D02*
Y19531D01*
X25140Y20421D01*
Y20891D01*
X24920Y21111D02*
X25140Y20891D01*
X24680Y21111D02*
X24920D01*
X24250Y18381D02*
X24480Y18151D01*
X24440Y21351D02*
Y21786D01*
Y21351D02*
X24680Y21111D01*
X24340Y21311D02*
Y21601D01*
X24620Y21031D02*
X24890D01*
X25060Y20861D01*
Y20471D02*
Y20861D01*
X24160Y19571D02*
X25060Y20471D01*
X24160Y18301D02*
Y19571D01*
X24410Y18051D02*
X25320D01*
X24160Y18301D02*
X24410Y18051D01*
X24340Y21311D02*
X24620Y21031D01*
X23750Y19386D02*
X23975D01*
D20*
X28200Y22007D02*
X28255Y21952D01*
X28640D01*
D22*
X25626Y17727D02*
Y17815D01*
X25550Y17651D02*
X25626Y17727D01*
X22820Y17651D02*
X25550D01*
X22570Y17901D02*
X22820Y17651D01*
X22570Y17901D02*
Y22631D01*
X25880Y17815D02*
Y17851D01*
D23*
X25317Y19032D02*
X25377Y19092D01*
X25317Y18968D02*
Y19032D01*
X25175Y18890D02*
X25239D01*
X25115Y18830D02*
X25175Y18890D01*
X25204Y19159D02*
X25257Y19212D01*
X25126Y19159D02*
X25204D01*
X25048Y19003D02*
Y19081D01*
X24995Y18950D02*
X25048Y19003D01*
Y19081D02*
X25090Y19124D01*
X25274Y18926D02*
X25317Y18968D01*
X25239Y18890D02*
X25274Y18926D01*
X24963Y19520D02*
X25136Y19346D01*
X25006Y19209D02*
X25136Y19339D01*
X25006Y19166D02*
Y19209D01*
X25257Y19460D02*
X25416Y19300D01*
Y19131D02*
Y19300D01*
X25377Y19092D02*
X25416Y19131D01*
X25041Y19619D02*
X25133Y19527D01*
X25189D02*
X25257Y19460D01*
X25133Y19527D02*
X25189D01*
X23709Y21572D02*
X23984D01*
X25239Y18890D02*
X25508Y18621D01*
X26010D01*
X26238Y18393D01*
Y18251D02*
Y18393D01*
X25822Y19131D02*
X25842Y19111D01*
X23620Y21226D02*
X23820D01*
X23990D01*
X23820D02*
Y21368D01*
X23696Y21382D02*
X23984D01*
X23820Y21041D02*
Y21226D01*
Y21041D02*
X23930Y20931D01*
X24800Y19414D02*
X25006Y19209D01*
X24800Y19414D02*
Y19601D01*
X24970Y19771D01*
X25006Y19166D02*
X25048D01*
X24820Y18711D02*
X24907Y18798D01*
X25060Y18741D02*
Y18775D01*
X25115Y18830D01*
X25416Y19131D02*
X25822D01*
X24970Y19771D02*
X25320D01*
X25048Y19166D02*
X25090Y19124D01*
X24830Y18875D02*
X24907Y18798D01*
X24830Y18875D02*
Y18990D01*
X25006Y19166D01*
X24640Y18771D02*
X24700Y18831D01*
X24640Y18721D02*
Y18771D01*
Y18721D02*
X24780Y18581D01*
X24900D01*
X25060Y18741D01*
X23930Y20421D02*
Y20931D01*
D24*
X28200Y18451D02*
X28211Y18462D01*
X28640D01*
X28200Y18959D02*
X28255Y18904D01*
X28640D01*
X28200Y19467D02*
X28211Y19478D01*
X28640D01*
X28200Y19975D02*
X28255Y19920D01*
X28640D01*
X28200Y20483D02*
X28211Y20494D01*
X28640D01*
X28200Y20991D02*
X28255Y20936D01*
X28640D01*
X28200Y21499D02*
X28211Y21510D01*
X28640D01*
X25600Y20801D02*
X25660Y20741D01*
X25600Y20801D02*
Y21331D01*
Y21881D01*
X25660Y19681D02*
Y20231D01*
Y20741D01*
X25180Y21331D02*
Y21881D01*
X27262Y21879D02*
X27380Y21761D01*
X27590D01*
X27680Y21671D01*
Y21511D02*
Y21671D01*
X27570Y21401D02*
X27680Y21511D01*
X27350Y21401D02*
X27570D01*
X27262Y21313D02*
X27350Y21401D01*
X27262Y21092D02*
Y21313D01*
X27770Y21941D02*
Y22108D01*
Y21941D02*
X27890Y21821D01*
Y21391D02*
Y21821D01*
X27770Y21271D02*
X27890Y21391D01*
X27770Y21092D02*
Y21271D01*
Y20076D02*
Y20255D01*
X27890Y20375D01*
Y20805D01*
X27770Y20925D02*
X27890Y20805D01*
X27770Y20925D02*
Y21092D01*
X27262Y20076D02*
Y20297D01*
X27350Y20385D01*
X27570D01*
X27680Y20495D01*
Y20655D01*
X27590Y20745D02*
X27680Y20655D01*
X27380Y20745D02*
X27590D01*
X27262Y20863D02*
X27380Y20745D01*
X27262Y20863D02*
Y21092D01*
X27770Y19060D02*
Y19239D01*
X27890Y19359D01*
Y19789D01*
X27770Y19909D02*
X27890Y19789D01*
X27770Y19909D02*
Y20076D01*
X27262Y19060D02*
Y19281D01*
X27350Y19369D01*
X27570D01*
X27680Y19479D01*
Y19639D01*
X27590Y19729D02*
X27680Y19639D01*
X27380Y19729D02*
X27590D01*
X27262Y19847D02*
X27380Y19729D01*
X27262Y19847D02*
Y20076D01*
X26900Y21581D02*
X27480D01*
X26900Y18533D02*
X27480D01*
X26900Y19549D02*
Y20565D01*
Y21581D01*
Y20565D02*
X27480D01*
X27770Y22108D02*
Y22351D01*
X26080D02*
X27770D01*
X26080Y19681D02*
Y20231D01*
X25180Y21881D02*
Y22121D01*
X26080D01*
Y20231D02*
Y22121D01*
Y22351D01*
X26900Y18533D02*
Y19431D01*
Y19549D01*
X25660Y19431D02*
X26900D01*
X25660Y19181D02*
Y19681D01*
X26900Y19549D02*
X27480D01*
X26900Y18211D02*
Y18533D01*
X26720Y18031D02*
X26900Y18211D01*
X26320Y18031D02*
X26720D01*
X26260Y17971D02*
X26320Y18031D01*
X26134Y17815D02*
X26260D01*
X26388D01*
X26260D02*
Y17971D01*
X24930Y19961D02*
X25320D01*
X24420Y19451D02*
X24930Y19961D01*
X24420Y18491D02*
Y19451D01*
Y18491D02*
X24600Y18311D01*
X25670D01*
X25730Y18251D01*
Y18061D02*
Y18251D01*
Y18061D02*
X25880Y17911D01*
Y17815D02*
Y17911D01*
X23199Y19775D02*
X23274D01*
X23510Y20011D01*
Y20421D01*
X23199Y20932D02*
Y21355D01*
Y20932D02*
X23510Y20621D01*
Y20421D02*
Y20621D01*
Y20421D02*
X23930D01*
X23199Y18185D02*
X23524D01*
X23980Y18641D01*
X23930Y20421D02*
X24670D01*
X23980Y18641D02*
Y20371D01*
X24760Y21331D02*
Y21881D01*
X26500Y19681D02*
Y21879D01*
X27262D02*
Y22108D01*
X26500Y21879D02*
X26729Y22108D01*
X27262D01*
D25*
X23199Y21355D02*
D03*
X22945Y21482D02*
D03*
X23199Y21609D02*
D03*
X22945Y21736D02*
D03*
Y21990D02*
D03*
X23199Y22117D02*
D03*
Y21863D02*
D03*
X22945Y22244D02*
D03*
Y20664D02*
D03*
X23199Y20283D02*
D03*
Y20537D02*
D03*
X22945Y20410D02*
D03*
Y20156D02*
D03*
X23199Y20029D02*
D03*
X22945Y19902D02*
D03*
X23199Y19775D02*
D03*
Y18185D02*
D03*
X22945Y18312D02*
D03*
X23199Y18439D02*
D03*
X22945Y18566D02*
D03*
Y18820D02*
D03*
X23199Y18947D02*
D03*
Y18693D02*
D03*
X22945Y19074D02*
D03*
X25320Y19961D02*
D03*
D26*
X28200Y18451D02*
D03*
Y18959D02*
D03*
Y19975D02*
D03*
Y19467D02*
D03*
Y20483D02*
D03*
Y20991D02*
D03*
Y22007D02*
D03*
Y21499D02*
D03*
D27*
X25660Y20231D02*
D03*
X26080D02*
D03*
X26500D02*
D03*
X25660Y19681D02*
D03*
X26080D02*
D03*
X26500D02*
D03*
X24760Y21881D02*
D03*
X25180D02*
D03*
X25600D02*
D03*
X24760Y21331D02*
D03*
X25180D02*
D03*
X25600D02*
D03*
D28*
X23894Y22351D02*
D03*
X24148D02*
D03*
X25842Y19111D02*
D03*
X26096D02*
D03*
X27516Y19060D02*
D03*
X27262D02*
D03*
Y20076D02*
D03*
X27516D02*
D03*
Y21092D02*
D03*
X27262D02*
D03*
Y22108D02*
D03*
X27516D02*
D03*
X27404Y17815D02*
D03*
X27912D02*
D03*
X28166D02*
D03*
X27658D02*
D03*
X28420D02*
D03*
X26388D02*
D03*
X25880D02*
D03*
X25626D02*
D03*
X24864D02*
D03*
X25118D02*
D03*
X26134D02*
D03*
X25372D02*
D03*
X28166Y22641D02*
D03*
X27658D02*
D03*
X27404D02*
D03*
X26642D02*
D03*
X26896D02*
D03*
X27912D02*
D03*
X27150D02*
D03*
X25474D02*
D03*
X25728D02*
D03*
X24712D02*
D03*
X24966D02*
D03*
X24204D02*
D03*
X23950D02*
D03*
X25982D02*
D03*
X25220D02*
D03*
X24458D02*
D03*
X24670Y20421D02*
D03*
D29*
X23640Y22351D02*
D03*
X26350Y19111D02*
D03*
X27770Y19060D02*
D03*
Y20076D02*
D03*
Y21092D02*
D03*
Y22108D02*
D03*
X27150Y17815D02*
D03*
X26642D02*
D03*
X28420Y22641D02*
D03*
X26236D02*
D03*
D30*
X25730Y18251D02*
D03*
Y22351D02*
D03*
D31*
X25984Y18251D02*
D03*
X26492D02*
D03*
X26238D02*
D03*
X25222Y22351D02*
D03*
X24714D02*
D03*
X24968D02*
D03*
X25476D02*
D03*
D32*
X23750Y19671D02*
D03*
X23610D02*
D03*
X23470D02*
D03*
X25260Y18151D02*
D03*
X25317Y18968D02*
D03*
X25239Y18890D02*
D03*
X25126Y19159D02*
D03*
X25048Y19081D02*
D03*
X25585Y18968D02*
D03*
X25197Y18728D02*
D03*
X22570Y22631D02*
D03*
X24907Y18798D02*
D03*
X24963Y19520D02*
D03*
X25041Y19619D02*
D03*
X23706Y21569D02*
D03*
X24081Y21583D02*
D03*
X23696Y21382D02*
D03*
X24070D02*
D03*
X23800Y20911D02*
D03*
X24190D02*
D03*
X24330Y22491D02*
D03*
X25320Y19771D02*
D03*
X24740Y18921D02*
D03*
X25420Y18151D02*
D03*
D33*
X27480Y21581D02*
D03*
Y20565D02*
D03*
Y18533D02*
D03*
Y19549D02*
D03*
X26500Y21879D02*
D03*
D34*
X28640Y21952D02*
D03*
Y21510D02*
D03*
Y20936D02*
D03*
Y20494D02*
D03*
Y19920D02*
D03*
Y19478D02*
D03*
Y18904D02*
D03*
Y18462D02*
D03*
D35*
X25136Y19339D02*
D03*
X25257Y19460D02*
D03*
D36*
Y19212D02*
D03*
X25377Y19092D02*
D03*
X24995Y18950D02*
D03*
X25115Y18830D02*
D03*
X24820Y18711D02*
D03*
X24700Y18831D02*
D03*
X25520Y18871D02*
D03*
X25640Y18751D02*
D03*
X25290Y18641D02*
D03*
X25410Y18521D02*
D03*
M02*
