%FSLAX42Y42*%
%MOMM*%
G71*
G01*
G75*
G04 Layer_Color=16711935*
%ADD10R,1.00X1.10*%
%ADD11R,1.30X1.50*%
%ADD12O,1.70X0.60*%
%ADD13R,1.10X1.00*%
%ADD14R,1.20X0.60*%
G04:AMPARAMS|DCode=15|XSize=0.3mm|YSize=1.8mm|CornerRadius=0mm|HoleSize=0mm|Usage=FLASHONLY|Rotation=315.000|XOffset=0mm|YOffset=0mm|HoleType=Round|Shape=Round|*
%AMOVALD15*
21,1,1.50,0.30,0.00,0.00,45.0*
1,1,0.30,-0.53,-0.53*
1,1,0.30,0.53,0.53*
%
%ADD15OVALD15*%

G04:AMPARAMS|DCode=16|XSize=0.3mm|YSize=1.8mm|CornerRadius=0mm|HoleSize=0mm|Usage=FLASHONLY|Rotation=225.000|XOffset=0mm|YOffset=0mm|HoleType=Round|Shape=Round|*
%AMOVALD16*
21,1,1.50,0.30,0.00,0.00,315.0*
1,1,0.30,-0.53,0.53*
1,1,0.30,0.53,-0.53*
%
%ADD16OVALD16*%

%ADD17R,1.50X1.30*%
%ADD18C,0.60*%
%ADD19C,0.26*%
%ADD20C,1.20*%
%ADD21C,0.25*%
%ADD22C,0.70*%
%ADD23C,0.50*%
%ADD24C,1.50*%
%ADD25C,1.50*%
%ADD26O,4.00X2.50*%
%ADD27C,2.20*%
%ADD28C,1.70*%
%ADD29R,1.70X1.70*%
%ADD30R,1.78X1.78*%
%ADD31C,1.78*%
%ADD32C,0.90*%
%ADD33C,1.40*%
%ADD34R,2.90X1.68*%
G04:AMPARAMS|DCode=35|XSize=1mm|YSize=1.1mm|CornerRadius=0mm|HoleSize=0mm|Usage=FLASHONLY|Rotation=315.000|XOffset=0mm|YOffset=0mm|HoleType=Round|Shape=Rectangle|*
%AMROTATEDRECTD35*
4,1,4,-0.74,-0.04,0.04,0.74,0.74,0.04,-0.04,-0.74,-0.74,-0.04,0.0*
%
%ADD35ROTATEDRECTD35*%

G04:AMPARAMS|DCode=36|XSize=1mm|YSize=1.1mm|CornerRadius=0mm|HoleSize=0mm|Usage=FLASHONLY|Rotation=225.000|XOffset=0mm|YOffset=0mm|HoleType=Round|Shape=Rectangle|*
%AMROTATEDRECTD36*
4,1,4,-0.04,0.74,0.74,-0.04,0.04,-0.74,-0.74,0.04,-0.04,0.74,0.0*
%
%ADD36ROTATEDRECTD36*%

%ADD37C,0.25*%
%ADD38C,0.20*%
%ADD39C,0.40*%
%ADD40R,1.20X1.30*%
%ADD41R,1.50X1.70*%
%ADD42O,1.90X0.80*%
%ADD43R,1.30X1.20*%
%ADD44R,1.40X0.80*%
G04:AMPARAMS|DCode=45|XSize=0.5mm|YSize=2mm|CornerRadius=0mm|HoleSize=0mm|Usage=FLASHONLY|Rotation=315.000|XOffset=0mm|YOffset=0mm|HoleType=Round|Shape=Round|*
%AMOVALD45*
21,1,1.50,0.50,0.00,0.00,45.0*
1,1,0.50,-0.53,-0.53*
1,1,0.50,0.53,0.53*
%
%ADD45OVALD45*%

G04:AMPARAMS|DCode=46|XSize=0.5mm|YSize=2mm|CornerRadius=0mm|HoleSize=0mm|Usage=FLASHONLY|Rotation=225.000|XOffset=0mm|YOffset=0mm|HoleType=Round|Shape=Round|*
%AMOVALD46*
21,1,1.50,0.50,0.00,0.00,315.0*
1,1,0.50,-0.53,0.53*
1,1,0.50,0.53,-0.53*
%
%ADD46OVALD46*%

%ADD47R,1.70X1.50*%
%ADD48C,1.70*%
%ADD49C,0.20*%
%ADD50O,4.20X2.70*%
%ADD51C,2.40*%
%ADD52C,1.90*%
%ADD53R,1.90X1.90*%
%ADD54R,1.98X1.98*%
%ADD55C,1.98*%
%ADD56R,3.10X1.88*%
G04:AMPARAMS|DCode=57|XSize=1.2mm|YSize=1.3mm|CornerRadius=0mm|HoleSize=0mm|Usage=FLASHONLY|Rotation=315.000|XOffset=0mm|YOffset=0mm|HoleType=Round|Shape=Rectangle|*
%AMROTATEDRECTD57*
4,1,4,-0.89,-0.04,0.04,0.89,0.89,0.04,-0.04,-0.89,-0.89,-0.04,0.0*
%
%ADD57ROTATEDRECTD57*%

G04:AMPARAMS|DCode=58|XSize=1.2mm|YSize=1.3mm|CornerRadius=0mm|HoleSize=0mm|Usage=FLASHONLY|Rotation=225.000|XOffset=0mm|YOffset=0mm|HoleType=Round|Shape=Rectangle|*
%AMROTATEDRECTD58*
4,1,4,-0.04,0.89,0.89,-0.04,0.04,-0.89,-0.89,0.04,-0.04,0.89,0.0*
%
%ADD58ROTATEDRECTD58*%

D24*
X24760Y21331D02*
Y21881D01*
X25180Y21331D02*
Y21881D01*
X25600Y21331D02*
Y21881D01*
X25180D02*
Y22121D01*
X26080D01*
Y22351D01*
X27770D01*
Y22108D02*
Y22351D01*
Y21941D02*
Y22108D01*
Y21941D02*
X27890Y21821D01*
Y21391D02*
Y21821D01*
X27770Y21271D02*
X27890Y21391D01*
X27770Y20921D02*
Y21271D01*
Y20921D02*
X27890Y20801D01*
Y20371D02*
Y20801D01*
X27770Y20251D02*
X27890Y20371D01*
X27770Y19911D02*
Y20251D01*
Y19911D02*
X27890Y19791D01*
Y19361D02*
Y19791D01*
X27770Y19241D02*
X27890Y19361D01*
X27770Y19060D02*
Y19241D01*
X27262Y21879D02*
Y22108D01*
Y21879D02*
X27380Y21761D01*
X27590D01*
X27680Y21671D01*
Y21511D02*
Y21671D01*
X27570Y21401D02*
X27680Y21511D01*
X27350Y21401D02*
X27570D01*
X27262Y21313D02*
X27350Y21401D01*
X27262Y20859D02*
Y21313D01*
Y20859D02*
X27380Y20741D01*
X27590D01*
X27680Y20651D01*
Y20501D02*
Y20651D01*
X27560Y20381D02*
X27680Y20501D01*
X27350Y20381D02*
X27560D01*
X27262Y20293D02*
X27350Y20381D01*
X27262Y19849D02*
Y20293D01*
Y19849D02*
X27380Y19731D01*
X27590D01*
X27680Y19641D01*
Y19481D02*
Y19641D01*
X27570Y19371D02*
X27680Y19481D01*
X27350Y19371D02*
X27570D01*
X27262Y19283D02*
X27350Y19371D01*
X27262Y19060D02*
Y19283D01*
X26729Y22108D02*
X27262D01*
X26500Y21879D02*
X26729Y22108D01*
X26500Y19681D02*
Y21879D01*
X26080Y19681D02*
Y22141D01*
X25600Y20801D02*
Y21331D01*
Y20801D02*
X25660Y20741D01*
Y20231D02*
Y20741D01*
Y19681D02*
Y20231D01*
Y19431D02*
Y19681D01*
Y19431D02*
X26900D01*
Y21581D01*
X27480D01*
X26900Y20565D02*
X27480D01*
X26900Y19549D02*
X27480D01*
X26900Y18533D02*
X27480D01*
X26900D02*
Y19431D01*
X26134Y17815D02*
X26388D01*
X26900Y18211D02*
Y18533D01*
X26720Y18031D02*
X26900Y18211D01*
X26320Y18031D02*
X26720D01*
X26260Y17971D02*
X26320Y18031D01*
X26260Y17815D02*
Y17971D01*
X23199Y20932D02*
Y21355D01*
Y20932D02*
X23510Y20621D01*
Y20011D02*
Y20621D01*
X23274Y19775D02*
X23510Y20011D01*
X23199Y19775D02*
X23274D01*
X23520Y20421D02*
X24670D01*
X23199Y18185D02*
X23524D01*
X23980Y18641D01*
Y20421D01*
X24930Y19961D02*
X25320D01*
X24420Y19451D02*
X24930Y19961D01*
X24420Y18491D02*
Y19451D01*
Y18491D02*
X24600Y18311D01*
X25670D01*
X25730Y18251D01*
Y18061D02*
Y18251D01*
Y18061D02*
X25880Y17911D01*
Y17815D02*
Y17911D01*
D40*
X24440Y21956D02*
D03*
Y21786D02*
D03*
X24260Y21956D02*
D03*
X24260Y21786D02*
D03*
X23470Y19556D02*
D03*
Y19386D02*
D03*
X23610Y19556D02*
D03*
Y19386D02*
D03*
X23750Y19556D02*
D03*
Y19386D02*
D03*
X23440Y21866D02*
D03*
X23440Y21696D02*
D03*
X24180Y21226D02*
D03*
X24180Y21056D02*
D03*
X23990Y21056D02*
D03*
Y21226D02*
D03*
X23440Y21226D02*
D03*
X23440Y21056D02*
D03*
X23620Y21056D02*
D03*
X23620Y21226D02*
D03*
D43*
X23625Y21871D02*
D03*
X23795D02*
D03*
D44*
X24164Y21477D02*
D03*
X23984Y21572D02*
D03*
Y21382D02*
D03*
X23796Y21477D02*
D03*
X23616Y21572D02*
D03*
Y21382D02*
D03*
D48*
X23199Y21355D02*
D03*
X22945Y21482D02*
D03*
X23199Y21609D02*
D03*
X22945Y21736D02*
D03*
Y21990D02*
D03*
X23199Y22117D02*
D03*
Y21863D02*
D03*
X22945Y22244D02*
D03*
Y20664D02*
D03*
X23199Y20283D02*
D03*
Y20537D02*
D03*
X22945Y20410D02*
D03*
Y20156D02*
D03*
X23199Y20029D02*
D03*
X22945Y19902D02*
D03*
X23199Y19775D02*
D03*
Y18185D02*
D03*
X22945Y18312D02*
D03*
X23199Y18439D02*
D03*
X22945Y18566D02*
D03*
Y18820D02*
D03*
X23199Y18947D02*
D03*
Y18693D02*
D03*
X22945Y19074D02*
D03*
D49*
X22310Y22371D02*
D03*
Y21228D02*
D03*
Y19648D02*
D03*
Y20791D02*
D03*
Y19201D02*
D03*
Y18058D02*
D03*
D50*
X28200Y18451D02*
D03*
Y18959D02*
D03*
Y19975D02*
D03*
Y19467D02*
D03*
Y20483D02*
D03*
Y20991D02*
D03*
Y22007D02*
D03*
Y21499D02*
D03*
D51*
X25660Y20231D02*
D03*
X26080D02*
D03*
X26500D02*
D03*
X25660Y19681D02*
D03*
X26080D02*
D03*
X26500D02*
D03*
X24760Y21881D02*
D03*
X25180D02*
D03*
X25600D02*
D03*
X24760Y21331D02*
D03*
X25180D02*
D03*
X25600D02*
D03*
D52*
X23894Y22351D02*
D03*
X24148D02*
D03*
X25842Y19111D02*
D03*
X26096D02*
D03*
X27516Y19060D02*
D03*
X27262D02*
D03*
Y20076D02*
D03*
X27516D02*
D03*
Y21092D02*
D03*
X27262D02*
D03*
Y22108D02*
D03*
X27516D02*
D03*
X27404Y17815D02*
D03*
X27912D02*
D03*
X28166D02*
D03*
X27658D02*
D03*
X28420D02*
D03*
X26388D02*
D03*
X25880D02*
D03*
X25626D02*
D03*
X24864D02*
D03*
X25118D02*
D03*
X26134D02*
D03*
X25372D02*
D03*
X28166Y22641D02*
D03*
X27658D02*
D03*
X27404D02*
D03*
X26642D02*
D03*
X26896D02*
D03*
X27912D02*
D03*
X27150D02*
D03*
X25474D02*
D03*
X25728D02*
D03*
X24712D02*
D03*
X24966D02*
D03*
X24204D02*
D03*
X23950D02*
D03*
X25982D02*
D03*
X25220D02*
D03*
X24458D02*
D03*
D53*
X23640Y22351D02*
D03*
X26350Y19111D02*
D03*
X27770Y19060D02*
D03*
Y20076D02*
D03*
Y21092D02*
D03*
Y22108D02*
D03*
X27150Y17815D02*
D03*
X26642D02*
D03*
X28420Y22641D02*
D03*
X26236D02*
D03*
D54*
X25730Y18251D02*
D03*
Y22351D02*
D03*
D55*
X25984Y18251D02*
D03*
X26492D02*
D03*
X26238D02*
D03*
X25222Y22351D02*
D03*
X24714D02*
D03*
X24968D02*
D03*
X25476D02*
D03*
D56*
X28640Y21952D02*
D03*
Y21510D02*
D03*
Y20936D02*
D03*
Y20494D02*
D03*
Y19920D02*
D03*
Y19478D02*
D03*
Y18904D02*
D03*
Y18462D02*
D03*
D57*
X25136Y19339D02*
D03*
X25257Y19460D02*
D03*
D58*
Y19212D02*
D03*
X25377Y19092D02*
D03*
X24995Y18950D02*
D03*
X25115Y18830D02*
D03*
X24820Y18711D02*
D03*
X24700Y18831D02*
D03*
X25520Y18871D02*
D03*
X25640Y18751D02*
D03*
X25290Y18641D02*
D03*
X25410Y18521D02*
D03*
M02*
