%FSLAX42Y42*%
%MOMM*%
G71*
G01*
G75*
G04 Layer_Physical_Order=1*
G04 Layer_Color=255*
%ADD10R,1.00X1.10*%
%ADD11R,1.30X1.50*%
%ADD12O,1.70X0.60*%
%ADD13R,1.10X1.00*%
%ADD14R,1.20X0.60*%
G04:AMPARAMS|DCode=15|XSize=0.3mm|YSize=1.8mm|CornerRadius=0mm|HoleSize=0mm|Usage=FLASHONLY|Rotation=315.000|XOffset=0mm|YOffset=0mm|HoleType=Round|Shape=Round|*
%AMOVALD15*
21,1,1.50,0.30,0.00,0.00,45.0*
1,1,0.30,-0.53,-0.53*
1,1,0.30,0.53,0.53*
%
%ADD15OVALD15*%

G04:AMPARAMS|DCode=16|XSize=0.3mm|YSize=1.8mm|CornerRadius=0mm|HoleSize=0mm|Usage=FLASHONLY|Rotation=225.000|XOffset=0mm|YOffset=0mm|HoleType=Round|Shape=Round|*
%AMOVALD16*
21,1,1.50,0.30,0.00,0.00,315.0*
1,1,0.30,-0.53,0.53*
1,1,0.30,0.53,-0.53*
%
%ADD16OVALD16*%

%ADD17R,1.50X1.30*%
%ADD18C,0.60*%
%ADD19C,0.26*%
%ADD20C,1.20*%
%ADD21C,0.25*%
%ADD22C,0.70*%
%ADD23C,0.50*%
%ADD24C,1.50*%
%ADD25C,1.50*%
%ADD26O,4.00X2.50*%
%ADD27C,2.20*%
%ADD28C,1.70*%
%ADD29R,1.70X1.70*%
%ADD30R,1.78X1.78*%
%ADD31C,1.78*%
%ADD32C,0.90*%
%ADD33C,1.40*%
G36*
X27448Y20793D02*
X27510D01*
Y20842D01*
X27548D01*
X27573Y20818D01*
X27573D01*
X27573Y20818D01*
X27573Y20818D01*
Y20818D01*
X27590Y20805D01*
X27609Y20797D01*
X27630Y20794D01*
X28084D01*
X28105Y20797D01*
X28125Y20805D01*
X28141Y20818D01*
X28166Y20842D01*
X28577D01*
Y20192D01*
X27142D01*
Y20251D01*
X27170D01*
Y20266D01*
X27230D01*
X27230Y20266D01*
X27340D01*
X27359Y20270D01*
X27376Y20281D01*
X27387Y20297D01*
X27391Y20317D01*
X27387Y20336D01*
X27376Y20353D01*
X27359Y20364D01*
X27340Y20368D01*
X27285D01*
X27285Y20368D01*
X27170D01*
Y20401D01*
X27142D01*
Y20421D01*
X27170D01*
Y20424D01*
X27183Y20426D01*
X27183Y20424D01*
X27194Y20408D01*
X27210Y20397D01*
X27230Y20393D01*
X27340D01*
X27340Y20393D01*
X27429D01*
X27448Y20397D01*
X27465Y20408D01*
X27486Y20429D01*
X27497Y20446D01*
X27498Y20449D01*
X27501Y20465D01*
Y20477D01*
X27503Y20477D01*
X27525Y20486D01*
X27544Y20501D01*
X27559Y20520D01*
X27568Y20542D01*
X27571Y20565D01*
X27568Y20589D01*
X27559Y20610D01*
X27544Y20629D01*
X27525Y20644D01*
X27503Y20653D01*
X27501Y20653D01*
Y20665D01*
X27497Y20685D01*
X27486Y20701D01*
X27453Y20734D01*
X27437Y20745D01*
X27417Y20749D01*
X27142D01*
Y20829D01*
X27190D01*
Y20793D01*
X27340D01*
Y20842D01*
X27360D01*
Y20793D01*
X27422D01*
Y20863D01*
X27448D01*
Y20793D01*
D02*
G37*
G36*
Y19777D02*
X27510D01*
Y19821D01*
X27554D01*
X27573Y19802D01*
X27573D01*
X27573Y19802D01*
X27573Y19802D01*
Y19802D01*
X27590Y19789D01*
X27609Y19781D01*
X27630Y19778D01*
X28084D01*
X28105Y19781D01*
X28125Y19789D01*
X28141Y19802D01*
X28161Y19821D01*
X28583D01*
Y19181D01*
X27148D01*
Y19241D01*
X27170D01*
Y19250D01*
X27230D01*
X27230Y19250D01*
X27340D01*
X27359Y19254D01*
X27376Y19265D01*
X27387Y19281D01*
X27391Y19301D01*
X27387Y19320D01*
X27376Y19337D01*
X27359Y19348D01*
X27340Y19352D01*
X27285D01*
X27285Y19352D01*
X27170D01*
Y19391D01*
X27148D01*
Y19411D01*
X27170D01*
Y19411D01*
X27182D01*
X27183Y19408D01*
X27194Y19392D01*
X27210Y19381D01*
X27230Y19377D01*
X27340D01*
X27340Y19377D01*
X27429D01*
X27448Y19381D01*
X27465Y19392D01*
X27486Y19413D01*
X27497Y19430D01*
X27498Y19433D01*
X27501Y19449D01*
Y19461D01*
X27503Y19461D01*
X27525Y19470D01*
X27544Y19485D01*
X27559Y19504D01*
X27568Y19526D01*
X27571Y19549D01*
X27568Y19573D01*
X27559Y19594D01*
X27544Y19613D01*
X27525Y19628D01*
X27503Y19637D01*
X27501Y19637D01*
Y19649D01*
X27497Y19669D01*
X27486Y19685D01*
X27453Y19718D01*
X27437Y19729D01*
X27417Y19733D01*
X27148D01*
Y19813D01*
X27190D01*
Y19777D01*
X27340D01*
Y19821D01*
X27360D01*
Y19777D01*
X27422D01*
Y19847D01*
X27448D01*
Y19777D01*
D02*
G37*
G36*
X28587Y18161D02*
X27152D01*
Y18221D01*
X27170D01*
Y18234D01*
X27230D01*
X27230Y18234D01*
X27340D01*
X27359Y18238D01*
X27376Y18249D01*
X27387Y18265D01*
X27391Y18285D01*
X27387Y18304D01*
X27376Y18321D01*
X27359Y18332D01*
X27340Y18336D01*
X27285D01*
X27285Y18336D01*
X27170D01*
Y18371D01*
X27152D01*
Y18391D01*
X27170D01*
Y18393D01*
X27183Y18394D01*
X27183Y18392D01*
X27194Y18376D01*
X27210Y18365D01*
X27230Y18361D01*
X27340D01*
X27340Y18361D01*
X27429D01*
X27448Y18365D01*
X27465Y18376D01*
X27486Y18397D01*
X27497Y18414D01*
X27498Y18417D01*
X27501Y18433D01*
Y18445D01*
X27503Y18445D01*
X27525Y18454D01*
X27544Y18469D01*
X27559Y18488D01*
X27568Y18510D01*
X27571Y18533D01*
X27568Y18557D01*
X27559Y18578D01*
X27544Y18597D01*
X27525Y18612D01*
X27503Y18621D01*
X27501Y18621D01*
Y18633D01*
X27497Y18653D01*
X27486Y18669D01*
X27453Y18702D01*
X27437Y18713D01*
X27417Y18717D01*
X27152D01*
Y18797D01*
X27190D01*
Y18761D01*
X27340D01*
Y18871D01*
X27360D01*
Y18844D01*
X27510D01*
Y18836D01*
X27522Y18840D01*
X27533Y18826D01*
X27573Y18786D01*
X27573D01*
X27573Y18786D01*
X27573Y18786D01*
Y18786D01*
X27590Y18773D01*
X27609Y18765D01*
X27630Y18762D01*
X28084D01*
X28105Y18765D01*
X28125Y18773D01*
X28141Y18786D01*
X28168Y18812D01*
X28275D01*
X28313Y18817D01*
X28348Y18832D01*
X28378Y18855D01*
X28390Y18871D01*
X28587D01*
Y18161D01*
D02*
G37*
G36*
X27448Y21809D02*
X27510D01*
Y21860D01*
X27547D01*
X27573Y21834D01*
X27573D01*
X27573Y21834D01*
X27573Y21834D01*
Y21834D01*
X27590Y21821D01*
X27609Y21813D01*
X27630Y21810D01*
X28084D01*
X28105Y21813D01*
X28125Y21821D01*
X28141Y21834D01*
X28168Y21860D01*
X28582D01*
Y21210D01*
X27147D01*
Y21271D01*
X27170D01*
Y21282D01*
X27340D01*
X27359Y21286D01*
X27376Y21297D01*
X27387Y21313D01*
X27391Y21333D01*
X27387Y21352D01*
X27376Y21369D01*
X27359Y21380D01*
X27340Y21384D01*
X27170D01*
Y21421D01*
X27147D01*
Y21441D01*
X27170D01*
Y21441D01*
X27183D01*
X27183Y21440D01*
X27194Y21424D01*
X27210Y21413D01*
X27230Y21409D01*
X27429D01*
X27448Y21413D01*
X27465Y21424D01*
X27486Y21445D01*
X27497Y21462D01*
X27498Y21465D01*
X27501Y21481D01*
Y21493D01*
X27503Y21493D01*
X27525Y21502D01*
X27544Y21517D01*
X27559Y21536D01*
X27568Y21558D01*
X27571Y21581D01*
X27568Y21605D01*
X27559Y21626D01*
X27544Y21645D01*
X27525Y21660D01*
X27503Y21669D01*
X27501Y21669D01*
Y21681D01*
X27497Y21701D01*
X27486Y21717D01*
X27453Y21750D01*
X27437Y21761D01*
X27417Y21765D01*
X27147D01*
Y21845D01*
X27190D01*
Y21809D01*
X27340D01*
Y21860D01*
X27360D01*
Y21809D01*
X27422D01*
Y21879D01*
X27448D01*
Y21809D01*
D02*
G37*
%LPC*%
G36*
X28420Y19454D02*
X28213D01*
Y19320D01*
X28275D01*
X28313Y19325D01*
X28348Y19340D01*
X28378Y19363D01*
X28402Y19394D01*
X28416Y19429D01*
X28420Y19454D01*
D02*
G37*
G36*
X28187D02*
X27980D01*
X27984Y19429D01*
X27998Y19394D01*
X28022Y19363D01*
X28052Y19340D01*
X28087Y19325D01*
X28125Y19320D01*
X28187D01*
Y19454D01*
D02*
G37*
G36*
X27878Y19415D02*
X27788D01*
Y19377D01*
X27830D01*
X27849Y19381D01*
X27866Y19392D01*
X27877Y19408D01*
X27878Y19415D01*
D02*
G37*
G36*
X27762D02*
X27671D01*
X27673Y19408D01*
X27684Y19392D01*
X27700Y19381D01*
X27720Y19377D01*
X27762D01*
Y19415D01*
D02*
G37*
G36*
X27830Y19352D02*
X27788D01*
Y19314D01*
X27878D01*
X27877Y19320D01*
X27866Y19337D01*
X27849Y19348D01*
X27830Y19352D01*
D02*
G37*
G36*
X27762Y19288D02*
X27671D01*
X27673Y19281D01*
X27684Y19265D01*
X27700Y19254D01*
X27720Y19250D01*
X27762D01*
Y19288D01*
D02*
G37*
G36*
X27510Y18818D02*
X27448D01*
Y18761D01*
X27510D01*
Y18818D01*
D02*
G37*
G36*
X27762Y19352D02*
X27720D01*
X27700Y19348D01*
X27684Y19337D01*
X27673Y19320D01*
X27671Y19314D01*
X27762D01*
Y19352D01*
D02*
G37*
G36*
X27878Y19288D02*
X27788D01*
Y19250D01*
X27830D01*
X27849Y19254D01*
X27866Y19265D01*
X27877Y19281D01*
X27878Y19288D01*
D02*
G37*
G36*
X27762Y19606D02*
X27720D01*
X27700Y19602D01*
X27684Y19591D01*
X27673Y19574D01*
X27671Y19568D01*
X27762D01*
Y19606D01*
D02*
G37*
G36*
X27878Y19542D02*
X27788D01*
Y19504D01*
X27830D01*
X27849Y19508D01*
X27866Y19519D01*
X27877Y19535D01*
X27878Y19542D01*
D02*
G37*
G36*
X27830Y19606D02*
X27788D01*
Y19568D01*
X27878D01*
X27877Y19574D01*
X27866Y19591D01*
X27849Y19602D01*
X27830Y19606D01*
D02*
G37*
G36*
X27878Y19669D02*
X27788D01*
Y19631D01*
X27830D01*
X27849Y19635D01*
X27866Y19646D01*
X27877Y19662D01*
X27878Y19669D01*
D02*
G37*
G36*
X27762D02*
X27671D01*
X27673Y19662D01*
X27684Y19646D01*
X27700Y19635D01*
X27720Y19631D01*
X27762D01*
Y19669D01*
D02*
G37*
G36*
X27830Y19479D02*
X27788D01*
Y19441D01*
X27878D01*
X27877Y19447D01*
X27866Y19464D01*
X27849Y19475D01*
X27830Y19479D01*
D02*
G37*
G36*
X27762D02*
X27720D01*
X27700Y19475D01*
X27684Y19464D01*
X27673Y19447D01*
X27671Y19441D01*
X27762D01*
Y19479D01*
D02*
G37*
G36*
X28187Y19613D02*
X28125D01*
X28087Y19608D01*
X28052Y19593D01*
X28022Y19570D01*
X27998Y19540D01*
X27984Y19505D01*
X27980Y19479D01*
X28187D01*
Y19613D01*
D02*
G37*
G36*
X27762Y19542D02*
X27671D01*
X27673Y19535D01*
X27684Y19519D01*
X27700Y19508D01*
X27720Y19504D01*
X27762D01*
Y19542D01*
D02*
G37*
G36*
X28275Y19613D02*
X28213D01*
Y19479D01*
X28420D01*
X28416Y19505D01*
X28402Y19540D01*
X28378Y19570D01*
X28348Y19593D01*
X28313Y19608D01*
X28275Y19613D01*
D02*
G37*
G36*
X27422Y18818D02*
X27360D01*
Y18761D01*
X27422D01*
Y18818D01*
D02*
G37*
G36*
X27762Y18399D02*
X27671D01*
X27673Y18392D01*
X27684Y18376D01*
X27700Y18365D01*
X27720Y18361D01*
X27762D01*
Y18399D01*
D02*
G37*
G36*
X28420Y18438D02*
X28213D01*
Y18304D01*
X28275D01*
X28313Y18309D01*
X28348Y18324D01*
X28378Y18347D01*
X28402Y18378D01*
X28416Y18413D01*
X28420Y18438D01*
D02*
G37*
G36*
X27878Y18399D02*
X27788D01*
Y18361D01*
X27830D01*
X27849Y18365D01*
X27866Y18376D01*
X27877Y18392D01*
X27878Y18399D01*
D02*
G37*
G36*
X27830Y18463D02*
X27788D01*
Y18425D01*
X27878D01*
X27877Y18431D01*
X27866Y18448D01*
X27849Y18459D01*
X27830Y18463D01*
D02*
G37*
G36*
X27762D02*
X27720D01*
X27700Y18459D01*
X27684Y18448D01*
X27673Y18431D01*
X27671Y18425D01*
X27762D01*
Y18463D01*
D02*
G37*
G36*
X27878Y18272D02*
X27788D01*
Y18234D01*
X27830D01*
X27849Y18238D01*
X27866Y18249D01*
X27877Y18265D01*
X27878Y18272D01*
D02*
G37*
G36*
X27762D02*
X27671D01*
X27673Y18265D01*
X27684Y18249D01*
X27700Y18238D01*
X27720Y18234D01*
X27762D01*
Y18272D01*
D02*
G37*
G36*
Y18336D02*
X27720D01*
X27700Y18332D01*
X27684Y18321D01*
X27673Y18304D01*
X27671Y18298D01*
X27762D01*
Y18336D01*
D02*
G37*
G36*
X28187Y18438D02*
X27980D01*
X27984Y18413D01*
X27998Y18378D01*
X28022Y18347D01*
X28052Y18324D01*
X28087Y18309D01*
X28125Y18304D01*
X28187D01*
Y18438D01*
D02*
G37*
G36*
X27830Y18336D02*
X27788D01*
Y18298D01*
X27878D01*
X27877Y18304D01*
X27866Y18321D01*
X27849Y18332D01*
X27830Y18336D01*
D02*
G37*
G36*
X27762Y18653D02*
X27671D01*
X27673Y18646D01*
X27684Y18630D01*
X27700Y18619D01*
X27720Y18615D01*
X27762D01*
Y18653D01*
D02*
G37*
G36*
X27830Y18590D02*
X27788D01*
Y18552D01*
X27878D01*
X27877Y18558D01*
X27866Y18575D01*
X27849Y18586D01*
X27830Y18590D01*
D02*
G37*
G36*
X27878Y18653D02*
X27788D01*
Y18615D01*
X27830D01*
X27849Y18619D01*
X27866Y18630D01*
X27877Y18646D01*
X27878Y18653D01*
D02*
G37*
G36*
X27830Y18717D02*
X27788D01*
Y18679D01*
X27878D01*
X27877Y18685D01*
X27866Y18702D01*
X27849Y18713D01*
X27830Y18717D01*
D02*
G37*
G36*
X27762D02*
X27720D01*
X27700Y18713D01*
X27684Y18702D01*
X27673Y18685D01*
X27671Y18679D01*
X27762D01*
Y18717D01*
D02*
G37*
G36*
X28275Y18597D02*
X28213D01*
Y18463D01*
X28420D01*
X28416Y18489D01*
X28402Y18524D01*
X28378Y18554D01*
X28348Y18577D01*
X28313Y18592D01*
X28275Y18597D01*
D02*
G37*
G36*
X28187D02*
X28125D01*
X28087Y18592D01*
X28052Y18577D01*
X28022Y18554D01*
X27998Y18524D01*
X27984Y18489D01*
X27980Y18463D01*
X28187D01*
Y18597D01*
D02*
G37*
G36*
X27762Y18526D02*
X27671D01*
X27673Y18519D01*
X27684Y18503D01*
X27700Y18492D01*
X27720Y18488D01*
X27762D01*
Y18526D01*
D02*
G37*
G36*
Y18590D02*
X27720D01*
X27700Y18586D01*
X27684Y18575D01*
X27673Y18558D01*
X27671Y18552D01*
X27762D01*
Y18590D01*
D02*
G37*
G36*
X27878Y18526D02*
X27788D01*
Y18488D01*
X27830D01*
X27849Y18492D01*
X27866Y18503D01*
X27877Y18519D01*
X27878Y18526D01*
D02*
G37*
G36*
X27762Y19733D02*
X27720D01*
X27700Y19729D01*
X27684Y19718D01*
X27673Y19701D01*
X27671Y19695D01*
X27762D01*
Y19733D01*
D02*
G37*
G36*
X28187Y21486D02*
X27980D01*
X27984Y21461D01*
X27998Y21426D01*
X28022Y21395D01*
X28052Y21372D01*
X28087Y21357D01*
X28125Y21352D01*
X28187D01*
Y21486D01*
D02*
G37*
G36*
X27830Y21384D02*
X27788D01*
Y21346D01*
X27878D01*
X27877Y21352D01*
X27866Y21369D01*
X27849Y21380D01*
X27830Y21384D01*
D02*
G37*
G36*
X28420Y21486D02*
X28213D01*
Y21352D01*
X28275D01*
X28313Y21357D01*
X28348Y21372D01*
X28378Y21395D01*
X28402Y21426D01*
X28416Y21461D01*
X28420Y21486D01*
D02*
G37*
G36*
X27878Y21447D02*
X27788D01*
Y21409D01*
X27830D01*
X27849Y21413D01*
X27866Y21424D01*
X27877Y21440D01*
X27878Y21447D01*
D02*
G37*
G36*
X27762D02*
X27671D01*
X27673Y21440D01*
X27684Y21424D01*
X27700Y21413D01*
X27720Y21409D01*
X27762D01*
Y21447D01*
D02*
G37*
G36*
Y21765D02*
X27720D01*
X27700Y21761D01*
X27684Y21750D01*
X27673Y21733D01*
X27671Y21727D01*
X27762D01*
Y21765D01*
D02*
G37*
G36*
X27830Y20749D02*
X27788D01*
Y20711D01*
X27878D01*
X27877Y20717D01*
X27866Y20734D01*
X27849Y20745D01*
X27830Y20749D01*
D02*
G37*
G36*
X27762Y21320D02*
X27671D01*
X27673Y21313D01*
X27684Y21297D01*
X27700Y21286D01*
X27720Y21282D01*
X27762D01*
Y21320D01*
D02*
G37*
G36*
Y21384D02*
X27720D01*
X27700Y21380D01*
X27684Y21369D01*
X27673Y21352D01*
X27671Y21346D01*
X27762D01*
Y21384D01*
D02*
G37*
G36*
X27878Y21320D02*
X27788D01*
Y21282D01*
X27830D01*
X27849Y21286D01*
X27866Y21297D01*
X27877Y21313D01*
X27878Y21320D01*
D02*
G37*
G36*
X27762Y21638D02*
X27720D01*
X27700Y21634D01*
X27684Y21623D01*
X27673Y21606D01*
X27671Y21600D01*
X27762D01*
Y21638D01*
D02*
G37*
G36*
X27878Y21574D02*
X27788D01*
Y21536D01*
X27830D01*
X27849Y21540D01*
X27866Y21551D01*
X27877Y21567D01*
X27878Y21574D01*
D02*
G37*
G36*
X27830Y21638D02*
X27788D01*
Y21600D01*
X27878D01*
X27877Y21606D01*
X27866Y21623D01*
X27849Y21634D01*
X27830Y21638D01*
D02*
G37*
G36*
X27878Y21701D02*
X27788D01*
Y21663D01*
X27830D01*
X27849Y21667D01*
X27866Y21678D01*
X27877Y21694D01*
X27878Y21701D01*
D02*
G37*
G36*
X27762D02*
X27671D01*
X27673Y21694D01*
X27684Y21678D01*
X27700Y21667D01*
X27720Y21663D01*
X27762D01*
Y21701D01*
D02*
G37*
G36*
X27830Y21511D02*
X27788D01*
Y21473D01*
X27878D01*
X27877Y21479D01*
X27866Y21496D01*
X27849Y21507D01*
X27830Y21511D01*
D02*
G37*
G36*
X27762D02*
X27720D01*
X27700Y21507D01*
X27684Y21496D01*
X27673Y21479D01*
X27671Y21473D01*
X27762D01*
Y21511D01*
D02*
G37*
G36*
X28187Y21645D02*
X28125D01*
X28087Y21640D01*
X28052Y21625D01*
X28022Y21602D01*
X27998Y21572D01*
X27984Y21537D01*
X27980Y21511D01*
X28187D01*
Y21645D01*
D02*
G37*
G36*
X27762Y21574D02*
X27671D01*
X27673Y21567D01*
X27684Y21551D01*
X27700Y21540D01*
X27720Y21536D01*
X27762D01*
Y21574D01*
D02*
G37*
G36*
X28275Y21645D02*
X28213D01*
Y21511D01*
X28420D01*
X28416Y21537D01*
X28402Y21572D01*
X28378Y21602D01*
X28348Y21625D01*
X28313Y21640D01*
X28275Y21645D01*
D02*
G37*
G36*
X27762Y20749D02*
X27720D01*
X27700Y20745D01*
X27684Y20734D01*
X27673Y20717D01*
X27671Y20711D01*
X27762D01*
Y20749D01*
D02*
G37*
G36*
X28187Y20470D02*
X27980D01*
X27984Y20445D01*
X27998Y20410D01*
X28022Y20379D01*
X28052Y20356D01*
X28087Y20341D01*
X28125Y20336D01*
X28187D01*
Y20470D01*
D02*
G37*
G36*
X27830Y20368D02*
X27788D01*
Y20330D01*
X27878D01*
X27877Y20336D01*
X27866Y20353D01*
X27849Y20364D01*
X27830Y20368D01*
D02*
G37*
G36*
X28420Y20470D02*
X28213D01*
Y20336D01*
X28275D01*
X28313Y20341D01*
X28348Y20356D01*
X28378Y20379D01*
X28402Y20410D01*
X28416Y20445D01*
X28420Y20470D01*
D02*
G37*
G36*
X27878Y20431D02*
X27788D01*
Y20393D01*
X27830D01*
X27849Y20397D01*
X27866Y20408D01*
X27877Y20424D01*
X27878Y20431D01*
D02*
G37*
G36*
X27762D02*
X27671D01*
X27673Y20424D01*
X27684Y20408D01*
X27700Y20397D01*
X27720Y20393D01*
X27762D01*
Y20431D01*
D02*
G37*
G36*
X27830Y21765D02*
X27788D01*
Y21727D01*
X27878D01*
X27877Y21733D01*
X27866Y21750D01*
X27849Y21761D01*
X27830Y21765D01*
D02*
G37*
G36*
Y19733D02*
X27788D01*
Y19695D01*
X27878D01*
X27877Y19701D01*
X27866Y19718D01*
X27849Y19729D01*
X27830Y19733D01*
D02*
G37*
G36*
X27762Y20304D02*
X27671D01*
X27673Y20297D01*
X27684Y20281D01*
X27700Y20270D01*
X27720Y20266D01*
X27762D01*
Y20304D01*
D02*
G37*
G36*
Y20368D02*
X27720D01*
X27700Y20364D01*
X27684Y20353D01*
X27673Y20336D01*
X27671Y20330D01*
X27762D01*
Y20368D01*
D02*
G37*
G36*
X27878Y20304D02*
X27788D01*
Y20266D01*
X27830D01*
X27849Y20270D01*
X27866Y20281D01*
X27877Y20297D01*
X27878Y20304D01*
D02*
G37*
G36*
X27762Y20622D02*
X27720D01*
X27700Y20618D01*
X27684Y20607D01*
X27673Y20590D01*
X27671Y20584D01*
X27762D01*
Y20622D01*
D02*
G37*
G36*
X27878Y20558D02*
X27788D01*
Y20520D01*
X27830D01*
X27849Y20524D01*
X27866Y20535D01*
X27877Y20551D01*
X27878Y20558D01*
D02*
G37*
G36*
X27830Y20622D02*
X27788D01*
Y20584D01*
X27878D01*
X27877Y20590D01*
X27866Y20607D01*
X27849Y20618D01*
X27830Y20622D01*
D02*
G37*
G36*
X27878Y20685D02*
X27788D01*
Y20647D01*
X27830D01*
X27849Y20651D01*
X27866Y20662D01*
X27877Y20678D01*
X27878Y20685D01*
D02*
G37*
G36*
X27762D02*
X27671D01*
X27673Y20678D01*
X27684Y20662D01*
X27700Y20651D01*
X27720Y20647D01*
X27762D01*
Y20685D01*
D02*
G37*
G36*
X27830Y20495D02*
X27788D01*
Y20457D01*
X27878D01*
X27877Y20463D01*
X27866Y20480D01*
X27849Y20491D01*
X27830Y20495D01*
D02*
G37*
G36*
X27762D02*
X27720D01*
X27700Y20491D01*
X27684Y20480D01*
X27673Y20463D01*
X27671Y20457D01*
X27762D01*
Y20495D01*
D02*
G37*
G36*
X28187Y20629D02*
X28125D01*
X28087Y20624D01*
X28052Y20609D01*
X28022Y20586D01*
X27998Y20556D01*
X27984Y20521D01*
X27980Y20495D01*
X28187D01*
Y20629D01*
D02*
G37*
G36*
X27762Y20558D02*
X27671D01*
X27673Y20551D01*
X27684Y20535D01*
X27700Y20524D01*
X27720Y20520D01*
X27762D01*
Y20558D01*
D02*
G37*
G36*
X28275Y20629D02*
X28213D01*
Y20495D01*
X28420D01*
X28416Y20521D01*
X28402Y20556D01*
X28378Y20586D01*
X28348Y20609D01*
X28313Y20624D01*
X28275Y20629D01*
D02*
G37*
%LPD*%
D10*
X23610Y19556D02*
D03*
Y19386D02*
D03*
X23470Y19556D02*
D03*
Y19386D02*
D03*
X23750Y19556D02*
D03*
Y19386D02*
D03*
X26950Y21516D02*
D03*
Y21686D02*
D03*
X27100Y21516D02*
D03*
Y21346D02*
D03*
X26950Y20496D02*
D03*
Y20666D02*
D03*
X27100Y20496D02*
D03*
Y20326D02*
D03*
X26950Y18466D02*
D03*
Y18636D02*
D03*
X27100Y18466D02*
D03*
Y18296D02*
D03*
X26950Y19486D02*
D03*
Y19656D02*
D03*
X27100Y19486D02*
D03*
Y19316D02*
D03*
X23620Y21866D02*
D03*
Y21696D02*
D03*
X23970Y21866D02*
D03*
Y21696D02*
D03*
X24180Y21056D02*
D03*
X24180Y21226D02*
D03*
X23990Y21226D02*
D03*
Y21056D02*
D03*
X23800D02*
D03*
Y21226D02*
D03*
X23620Y21226D02*
D03*
X23620Y21056D02*
D03*
X23730Y22756D02*
D03*
Y22586D02*
D03*
X23560Y22756D02*
D03*
Y22586D02*
D03*
X24880Y20746D02*
D03*
Y20576D02*
D03*
X25060Y20746D02*
D03*
Y20576D02*
D03*
D11*
X27035Y21879D02*
D03*
X26845D02*
D03*
X27035Y20861D02*
D03*
X26845D02*
D03*
X27035Y19841D02*
D03*
X26845D02*
D03*
X27035Y18831D02*
D03*
X26845D02*
D03*
D12*
X27775Y21333D02*
D03*
Y21460D02*
D03*
Y21587D02*
D03*
Y21714D02*
D03*
X27285Y21333D02*
D03*
Y21460D02*
D03*
Y21587D02*
D03*
Y21714D02*
D03*
X27775Y20317D02*
D03*
Y20444D02*
D03*
Y20571D02*
D03*
Y20698D02*
D03*
X27285Y20317D02*
D03*
Y20444D02*
D03*
Y20571D02*
D03*
Y20698D02*
D03*
X27775Y19301D02*
D03*
Y19428D02*
D03*
Y19555D02*
D03*
Y19682D02*
D03*
X27285Y19301D02*
D03*
Y19428D02*
D03*
Y19555D02*
D03*
Y19682D02*
D03*
X27775Y18285D02*
D03*
Y18412D02*
D03*
Y18539D02*
D03*
Y18666D02*
D03*
X27285Y18285D02*
D03*
Y18412D02*
D03*
Y18539D02*
D03*
Y18666D02*
D03*
D13*
X27435Y21879D02*
D03*
X27265D02*
D03*
X27435Y20863D02*
D03*
X27265D02*
D03*
X27435Y19847D02*
D03*
X27265D02*
D03*
X27435Y18831D02*
D03*
X27265D02*
D03*
X25675Y19321D02*
D03*
X25505D02*
D03*
D14*
X23984Y21477D02*
D03*
X24164Y21572D02*
D03*
Y21382D02*
D03*
X23616Y21477D02*
D03*
X23796Y21572D02*
D03*
Y21382D02*
D03*
D15*
X25515Y19018D02*
D03*
X25479Y19053D02*
D03*
X25444Y19088D02*
D03*
X25409Y19124D02*
D03*
X25373Y19159D02*
D03*
X25338Y19194D02*
D03*
X25303Y19230D02*
D03*
X25267Y19265D02*
D03*
X25232Y19300D02*
D03*
X25197Y19336D02*
D03*
X25161Y19371D02*
D03*
X25126Y19407D02*
D03*
X24553Y18834D02*
D03*
X24588Y18798D02*
D03*
X24624Y18763D02*
D03*
X24659Y18728D02*
D03*
X24694Y18692D02*
D03*
X24730Y18657D02*
D03*
X24765Y18622D02*
D03*
X24801Y18586D02*
D03*
X24836Y18551D02*
D03*
X24871Y18516D02*
D03*
X24907Y18480D02*
D03*
X24942Y18445D02*
D03*
D16*
Y19407D02*
D03*
X24907Y19371D02*
D03*
X24871Y19336D02*
D03*
X24836Y19300D02*
D03*
X24801Y19265D02*
D03*
X24765Y19230D02*
D03*
X24730Y19194D02*
D03*
X24694Y19159D02*
D03*
X24659Y19124D02*
D03*
X24624Y19088D02*
D03*
X24588Y19053D02*
D03*
X24553Y19018D02*
D03*
X25126Y18445D02*
D03*
X25161Y18480D02*
D03*
X25197Y18516D02*
D03*
X25232Y18551D02*
D03*
X25267Y18586D02*
D03*
X25303Y18622D02*
D03*
X25338Y18657D02*
D03*
X25373Y18692D02*
D03*
X25409Y18728D02*
D03*
X25444Y18763D02*
D03*
X25479Y18798D02*
D03*
X25515Y18834D02*
D03*
D17*
X25230Y20696D02*
D03*
Y20886D02*
D03*
X24700Y20696D02*
D03*
Y20886D02*
D03*
D18*
X27285Y21587D02*
X27444D01*
X27285Y21460D02*
X27429D01*
X27450Y21481D01*
X27417Y21714D02*
X27450Y21681D01*
X27285Y21714D02*
X27417D01*
X27775Y18539D02*
X28112D01*
X28200Y18311D02*
Y18451D01*
X27775Y18412D02*
X28161D01*
X28200Y18451D02*
Y18631D01*
X27775Y18285D02*
X28174D01*
X28200Y18311D01*
X28165Y18666D02*
X28200Y18631D01*
X27775Y18666D02*
X28165D01*
X28200Y19341D02*
Y19631D01*
X27775Y19428D02*
X28161D01*
X27775Y19555D02*
X28112D01*
X28160Y19301D02*
X28200Y19341D01*
X27775Y19301D02*
X28160D01*
X28149Y19682D02*
X28200Y19631D01*
X27775Y19682D02*
X28149D01*
X27775Y20571D02*
X28112D01*
X28200Y20351D02*
Y20483D01*
X27775Y20444D02*
X28161D01*
X28200Y20483D02*
Y20651D01*
X27775Y20317D02*
X28166D01*
X28200Y20351D01*
X28153Y20698D02*
X28200Y20651D01*
X27775Y20698D02*
X28153D01*
X28161Y21460D02*
X28200Y21499D01*
X27775Y21460D02*
X28161D01*
X28200Y21381D02*
Y21499D01*
X28152Y21333D02*
X28200Y21381D01*
X27775Y21333D02*
X28152D01*
X28200Y21499D02*
Y21671D01*
X28157Y21714D02*
X28200Y21671D01*
X27775Y21714D02*
X28157D01*
X27775Y21587D02*
X28112D01*
X27103Y21714D02*
X27285D01*
X27075Y21686D02*
X27103Y21714D01*
X26950Y21686D02*
X27075D01*
X27113Y21333D02*
X27285D01*
X27100Y21346D02*
X27113Y21333D01*
Y20317D02*
X27285D01*
X26950Y20670D02*
X27075D01*
X27103Y20698D01*
X27417D01*
X27450Y20665D01*
X27429Y20444D02*
X27450Y20465D01*
X27285Y20444D02*
X27429D01*
X27285Y20571D02*
X27444D01*
X27113Y18285D02*
X27285D01*
X26950Y18638D02*
X27075D01*
X27103Y18666D01*
X27417D01*
X27450Y18633D01*
X27429Y18412D02*
X27450Y18433D01*
X27285Y18412D02*
X27429D01*
X27285Y18539D02*
X27444D01*
X27113Y19301D02*
X27285D01*
X26950Y19654D02*
X27075D01*
X27103Y19682D01*
X27417D01*
X27450Y19649D01*
X27429Y19428D02*
X27450Y19449D01*
X27285Y19428D02*
X27429D01*
X27285Y19555D02*
X27444D01*
X24148Y22351D02*
X24422D01*
X24712Y22641D01*
Y22607D02*
Y22641D01*
Y22607D02*
X24968Y22351D01*
X25540Y22121D02*
X25600Y22061D01*
Y21881D02*
Y22061D01*
X27450Y18433D02*
Y18633D01*
Y19449D02*
Y19649D01*
Y20465D02*
Y20665D01*
Y21481D02*
Y21681D01*
X24968Y22283D02*
Y22351D01*
Y22283D02*
X25130Y22121D01*
X25540D01*
D19*
X27600Y21714D02*
X27775D01*
X27435Y21879D02*
X27600Y21714D01*
X27035Y21879D02*
X27265D01*
X24320Y19675D02*
X24765Y19230D01*
X22945Y20664D02*
X23427D01*
X24060Y20031D01*
Y19723D02*
Y20031D01*
Y19723D02*
X24659Y19124D01*
X22945Y20410D02*
X23381D01*
X23920Y19871D01*
Y19721D02*
Y19871D01*
Y19721D02*
X24588Y19053D01*
X23199Y20283D02*
X23388D01*
X23860Y19811D01*
Y19711D02*
Y19811D01*
Y19711D02*
X24553Y19018D01*
X23610Y19556D02*
Y19721D01*
X23302Y20029D02*
X23610Y19721D01*
X23199Y20029D02*
X23302D01*
X22945Y20156D02*
X23375D01*
X23750Y19781D01*
Y19556D02*
Y19781D01*
X22945Y19902D02*
X23279D01*
X23470Y19711D01*
Y19556D02*
Y19711D01*
X23750Y19251D02*
Y19386D01*
Y19251D02*
X24270Y18731D01*
X24521D01*
X24588Y18798D01*
X23610Y19231D02*
Y19386D01*
Y19231D02*
X24160Y18681D01*
X24542D01*
X24624Y18763D01*
X23470Y19211D02*
Y19386D01*
Y19211D02*
X24050Y18631D01*
X24562D01*
X24659Y18728D01*
X22945Y19074D02*
X23397D01*
X23199Y18947D02*
X23404D01*
X22945Y18820D02*
X23381D01*
X23199Y18693D02*
X23368D01*
X22945Y18312D02*
X23409D01*
X25232Y18551D02*
X25520Y18263D01*
X25197Y18516D02*
X25420Y18292D01*
X25161Y18480D02*
X25260Y18381D01*
X23199Y18439D02*
X23382D01*
X25126Y18445D02*
X25200Y18371D01*
X25317Y19032D02*
X25409Y19124D01*
X25317Y18968D02*
Y19032D01*
X25225Y19152D02*
X25303Y19230D01*
X25225Y18904D02*
Y19011D01*
X25373Y19159D01*
X25161D02*
X25267Y19265D01*
X25154Y19081D02*
X25303Y19230D01*
X25048Y19081D02*
X25154D01*
X25220Y22609D02*
Y22641D01*
X23560Y22431D02*
Y22586D01*
Y22431D02*
X23640Y22351D01*
X23730Y22586D02*
X23894Y22422D01*
Y22351D02*
Y22422D01*
X23560Y22756D02*
X23730D01*
X25197Y18728D02*
X25303Y18622D01*
X25444Y18763D02*
X25550Y18657D01*
X25515Y19018D02*
X25525Y19028D01*
X23199Y20283D02*
X23203D01*
X24801Y18586D02*
X24907Y18692D01*
Y18798D01*
X24885Y19463D02*
X24942Y19407D01*
X24885Y19463D02*
Y19484D01*
X24935Y19534D01*
X24949D01*
X24822Y19456D02*
X24907Y19371D01*
X24822Y19456D02*
Y19505D01*
X24935Y19619D01*
X25041D01*
X25479Y18798D02*
X25554Y18724D01*
X22945Y21990D02*
X22953Y21982D01*
X25197Y18516D02*
X25266Y18446D01*
X24802Y19405D02*
X24871Y19336D01*
X24766Y19370D02*
X24836Y19300D01*
X25126Y19407D02*
X25182Y19463D01*
X23706Y21569D02*
X23793D01*
X23796Y21572D01*
X24092Y21572D02*
X24164D01*
X24070Y21382D02*
X24164D01*
X23982Y21475D02*
X23984Y21477D01*
X23791Y21376D02*
X23796Y21382D01*
X23982Y21045D02*
X23982D01*
X24140Y19714D02*
X24694Y19159D01*
X24220Y19704D02*
X24730Y19194D01*
X25220Y22353D02*
Y22641D01*
X25474Y22353D02*
Y22641D01*
X25525Y19028D02*
X25585Y18968D01*
X25550Y18657D02*
X26096D01*
X26350Y18911D01*
Y19111D01*
X25554Y18724D02*
X26003D01*
X26096Y18817D01*
Y19111D01*
X25338Y19194D02*
X25465Y19321D01*
X25505D01*
X25409Y19124D02*
X25486Y19201D01*
X25620D01*
X25675Y19256D01*
Y19321D01*
X24140Y19714D02*
Y20071D01*
X24220Y19704D02*
Y20091D01*
X24320Y19675D02*
Y20091D01*
X23199Y21863D02*
X23617D01*
X23199Y22117D02*
X23305Y22011D01*
X23910D01*
X23970Y21951D01*
Y21866D02*
Y21951D01*
X23618Y21694D02*
X23620Y21696D01*
X23618Y21228D02*
X23620Y21226D01*
X23618Y21228D02*
Y21694D01*
X23970Y21246D02*
X23990Y21226D01*
X23970Y21246D02*
Y21696D01*
X23620Y21056D02*
X23800D01*
X23990Y21056D02*
X24180D01*
X24410Y19656D02*
X24801Y19265D01*
X24410Y19656D02*
Y20101D01*
X23620Y20891D02*
X24410Y20101D01*
X23620Y20891D02*
Y21056D01*
X24500Y19636D02*
X24836Y19300D01*
X24500Y19636D02*
Y20121D01*
X23800Y20821D02*
X24500Y20121D01*
X23800Y20821D02*
Y20911D01*
X24580Y19627D02*
X24871Y19336D01*
X26950Y21516D02*
X27100D01*
X27035Y20863D02*
X27265D01*
X27435D02*
X27600Y20698D01*
X27775D01*
X27035Y18831D02*
X27265D01*
X27435D02*
X27600Y18666D01*
X27775D01*
X27035Y19847D02*
X27265D01*
X27435D02*
X27600Y19682D01*
X27775D01*
X26845Y21879D02*
Y21976D01*
X26900Y22031D01*
X27130D01*
X27180Y21981D01*
X27540D01*
X27590Y21931D01*
X27180Y20965D02*
X27540D01*
X27130Y21015D02*
X27180Y20965D01*
X26900Y21015D02*
X27130D01*
X26845Y20960D02*
X26900Y21015D01*
X26845Y20863D02*
Y20960D01*
X27180Y19949D02*
X27540D01*
X27130Y19999D02*
X27180Y19949D01*
X26900Y19999D02*
X27130D01*
X26845Y19944D02*
X26900Y19999D01*
X26845Y19847D02*
Y19944D01*
X27180Y18933D02*
X27540D01*
X27130Y18983D02*
X27180Y18933D01*
X26900Y18983D02*
X27130D01*
X26845Y18928D02*
X26900Y18983D01*
X26845Y18831D02*
Y18928D01*
X26950Y18468D02*
X27100D01*
X26730Y18991D02*
X26950Y19211D01*
Y19484D01*
X27100D01*
X26740Y20111D02*
X26950Y20321D01*
Y20500D01*
X26950D02*
X27100D01*
X26670Y21371D02*
X26815Y21516D01*
X26950D01*
X24700Y21271D02*
X24760Y21331D01*
X24700Y20886D02*
Y21271D01*
X25180Y21331D02*
X25230Y21281D01*
Y20886D02*
Y21281D01*
X23490Y20921D02*
X24320Y20091D01*
X22945Y21736D02*
X23405D01*
X23490Y21651D01*
Y20921D02*
Y21651D01*
X23199Y21609D02*
X23352D01*
X23400Y21561D01*
Y20911D02*
X24220Y20091D01*
X23400Y20911D02*
Y21561D01*
X22945Y21482D02*
X23269D01*
X23331Y21420D01*
Y20880D02*
X24140Y20071D01*
X23331Y20880D02*
Y21420D01*
X24081Y21583D02*
X24092Y21572D01*
X23730Y22756D02*
X23733Y22759D01*
X24302D01*
X24330Y22731D01*
Y22491D02*
Y22731D01*
X22945Y18566D02*
X23355D01*
X23397Y19074D02*
X23900Y18571D01*
X24644D01*
X24730Y18657D01*
X26815Y18466D02*
X26950D01*
X24765Y18622D02*
Y18624D01*
X24831Y18690D01*
Y18752D01*
X24750Y18832D02*
Y18911D01*
Y18832D02*
X24831Y18752D01*
X25420Y18151D02*
Y18292D01*
X25260Y18381D02*
X25260Y18151D01*
X23404Y18947D02*
X23910Y18441D01*
X24726D01*
X24836Y18551D01*
X23381Y18820D02*
X23850Y18351D01*
X24707D01*
X24871Y18516D01*
X23368Y18693D02*
X23790Y18271D01*
X24697D01*
X24907Y18480D01*
X23355Y18566D02*
X23720Y18201D01*
X24698D01*
X24942Y18445D01*
X23382Y18439D02*
X23690Y18131D01*
X23409Y18312D02*
X23670Y18051D01*
X25520Y18111D02*
Y18263D01*
X25460Y18051D02*
X25520Y18111D01*
X23670Y18051D02*
X25460D01*
X23690Y18131D02*
X25060D01*
X25200Y18271D01*
Y18371D01*
X26560Y18951D02*
Y19351D01*
X26670Y19461D01*
Y21371D01*
Y18901D02*
Y19301D01*
X26740Y19371D01*
Y20111D01*
X26730Y18761D02*
Y18991D01*
X25409Y18728D02*
X25545Y18591D01*
X26200D01*
X26560Y18951D01*
X25373Y18692D02*
X25545Y18521D01*
X26290D01*
X26670Y18901D01*
X25338Y18657D02*
X25534Y18461D01*
X26430D01*
X26730Y18761D01*
X25267Y18586D02*
X25452Y18401D01*
X26750D01*
X26815Y18466D01*
X23990Y20741D02*
Y21056D01*
Y20741D02*
X24580Y20151D01*
Y19627D02*
Y20151D01*
X24190Y20671D02*
Y20911D01*
X25126Y19407D02*
X25200Y19481D01*
Y19661D01*
X24190Y20671D02*
X25200Y19661D01*
X24700Y20696D02*
X24775D01*
X24825Y20746D01*
X24880D01*
X25060Y20746D02*
X25105D01*
X25155Y20696D01*
X25230D01*
X24880Y20576D02*
X25645D01*
D20*
X27516Y19017D02*
Y19060D01*
Y19017D02*
X27590Y18943D01*
Y18883D02*
Y18943D01*
Y18883D02*
X27630Y18843D01*
X28084D01*
X28200Y18959D01*
X27516Y20033D02*
Y20076D01*
Y20033D02*
X27590Y19959D01*
Y19899D02*
Y19959D01*
Y19899D02*
X27630Y19859D01*
X28084D01*
X28200Y19975D01*
X27516Y21049D02*
Y21092D01*
Y21049D02*
X27590Y20975D01*
Y20915D02*
Y20975D01*
Y20915D02*
X27630Y20875D01*
X28084D01*
X28200Y20991D01*
X28084Y21891D02*
X28200Y22007D01*
X27630Y21891D02*
X28084D01*
X27590Y21931D02*
X27630Y21891D01*
X27590Y21931D02*
Y21991D01*
X27516Y22065D02*
X27590Y21991D01*
X27516Y22065D02*
Y22108D01*
D21*
X23199Y20537D02*
X23404D01*
X23990Y19951D01*
Y19722D02*
Y19951D01*
Y19722D02*
X24624Y19088D01*
D22*
X23060Y22631D02*
X23530Y22161D01*
X22570Y22631D02*
X23060D01*
X23530Y22161D02*
X24430D01*
X24620Y22351D01*
X24714D01*
X24092Y21583D02*
X24600Y22091D01*
X24940D01*
X25150Y21881D01*
X25180D01*
D23*
X24180Y21226D02*
Y21365D01*
X23800Y21226D02*
Y21367D01*
D24*
X24760Y21331D02*
Y21611D01*
Y21881D01*
X25510Y19961D02*
X26080D01*
Y19681D02*
Y19961D01*
Y20231D01*
X25320Y19961D02*
X25510D01*
X25320Y19771D02*
X25510Y19961D01*
X25600Y20861D02*
Y21331D01*
Y20861D02*
X25660Y20801D01*
Y20231D02*
Y20801D01*
X24860Y20231D02*
X25660D01*
X24670Y20421D02*
X24860Y20231D01*
X26500D02*
Y21611D01*
X24760D02*
X26500D01*
Y21879D01*
Y19681D02*
Y20231D01*
X27179Y22191D02*
X27262Y22108D01*
X26500Y21879D02*
X26812Y22191D01*
X27179D01*
D25*
X23199Y21355D02*
D03*
X22945Y21482D02*
D03*
X23199Y21609D02*
D03*
X22945Y21736D02*
D03*
Y21990D02*
D03*
X23199Y22117D02*
D03*
Y21863D02*
D03*
X22945Y22244D02*
D03*
Y20664D02*
D03*
X23199Y20283D02*
D03*
Y20537D02*
D03*
X22945Y20410D02*
D03*
Y20156D02*
D03*
X23199Y20029D02*
D03*
X22945Y19902D02*
D03*
X23199Y19775D02*
D03*
Y18185D02*
D03*
X22945Y18312D02*
D03*
X23199Y18439D02*
D03*
X22945Y18566D02*
D03*
Y18820D02*
D03*
X23199Y18947D02*
D03*
Y18693D02*
D03*
X22945Y19074D02*
D03*
X25320Y19961D02*
D03*
D26*
X28200Y18451D02*
D03*
Y18959D02*
D03*
Y19975D02*
D03*
Y19467D02*
D03*
Y20483D02*
D03*
Y20991D02*
D03*
Y22007D02*
D03*
Y21499D02*
D03*
D27*
X25660Y20231D02*
D03*
X26080D02*
D03*
X26500D02*
D03*
X25660Y19681D02*
D03*
X26080D02*
D03*
X26500D02*
D03*
X24760Y21881D02*
D03*
X25180D02*
D03*
X25600D02*
D03*
X24760Y21331D02*
D03*
X25180D02*
D03*
X25600D02*
D03*
D28*
X23894Y22351D02*
D03*
X24148D02*
D03*
X25842Y19111D02*
D03*
X26096D02*
D03*
X27516Y19060D02*
D03*
X27262D02*
D03*
Y20076D02*
D03*
X27516D02*
D03*
Y21092D02*
D03*
X27262D02*
D03*
Y22108D02*
D03*
X27516D02*
D03*
X27404Y17815D02*
D03*
X27912D02*
D03*
X28166D02*
D03*
X27658D02*
D03*
X28420D02*
D03*
X26388D02*
D03*
X25880D02*
D03*
X25626D02*
D03*
X24864D02*
D03*
X25118D02*
D03*
X26134D02*
D03*
X25372D02*
D03*
X28166Y22641D02*
D03*
X27658D02*
D03*
X27404D02*
D03*
X26642D02*
D03*
X26896D02*
D03*
X27912D02*
D03*
X27150D02*
D03*
X25474D02*
D03*
X25728D02*
D03*
X24712D02*
D03*
X24966D02*
D03*
X24204D02*
D03*
X23950D02*
D03*
X25982D02*
D03*
X25220D02*
D03*
X24458D02*
D03*
X24670Y20421D02*
D03*
D29*
X23640Y22351D02*
D03*
X26350Y19111D02*
D03*
X27770Y19060D02*
D03*
Y20076D02*
D03*
Y21092D02*
D03*
Y22108D02*
D03*
X27150Y17815D02*
D03*
X26642D02*
D03*
X28420Y22641D02*
D03*
X26236D02*
D03*
D30*
X25730Y18251D02*
D03*
Y22351D02*
D03*
D31*
X25984Y18251D02*
D03*
X26492D02*
D03*
X26238D02*
D03*
X25222Y22351D02*
D03*
X24714D02*
D03*
X24968D02*
D03*
X25476D02*
D03*
D32*
X23750Y19671D02*
D03*
X23610D02*
D03*
X23470D02*
D03*
X25260Y18151D02*
D03*
X25317Y18968D02*
D03*
X25239Y18890D02*
D03*
X25126Y19159D02*
D03*
X25048Y19081D02*
D03*
X25585Y18968D02*
D03*
X25197Y18728D02*
D03*
X22570Y22631D02*
D03*
X24907Y18798D02*
D03*
X24963Y19520D02*
D03*
X25041Y19619D02*
D03*
X23706Y21569D02*
D03*
X24081Y21583D02*
D03*
X23696Y21382D02*
D03*
X24070D02*
D03*
X23800Y20911D02*
D03*
X24190D02*
D03*
X24330Y22491D02*
D03*
X25320Y19771D02*
D03*
X24740Y18921D02*
D03*
X25420Y18151D02*
D03*
D33*
X27480Y21581D02*
D03*
Y20565D02*
D03*
Y18533D02*
D03*
Y19549D02*
D03*
X26500Y21879D02*
D03*
M02*
