%FSLAX42Y42*%
%MOMM*%
G71*
G01*
G75*
G04 Layer_Color=32896*
%ADD10R,1.00X1.10*%
%ADD11R,1.30X1.50*%
%ADD12O,1.70X0.60*%
%ADD13R,1.10X1.00*%
%ADD14R,1.20X0.60*%
G04:AMPARAMS|DCode=15|XSize=0.3mm|YSize=1.8mm|CornerRadius=0mm|HoleSize=0mm|Usage=FLASHONLY|Rotation=315.000|XOffset=0mm|YOffset=0mm|HoleType=Round|Shape=Round|*
%AMOVALD15*
21,1,1.50,0.30,0.00,0.00,45.0*
1,1,0.30,-0.53,-0.53*
1,1,0.30,0.53,0.53*
%
%ADD15OVALD15*%

G04:AMPARAMS|DCode=16|XSize=0.3mm|YSize=1.8mm|CornerRadius=0mm|HoleSize=0mm|Usage=FLASHONLY|Rotation=225.000|XOffset=0mm|YOffset=0mm|HoleType=Round|Shape=Round|*
%AMOVALD16*
21,1,1.50,0.30,0.00,0.00,315.0*
1,1,0.30,-0.53,0.53*
1,1,0.30,0.53,-0.53*
%
%ADD16OVALD16*%

%ADD17R,1.50X1.30*%
%ADD18C,0.60*%
%ADD19C,0.26*%
%ADD20C,1.20*%
%ADD21C,0.25*%
%ADD22C,0.70*%
%ADD23C,0.50*%
%ADD24C,1.50*%
%ADD25C,1.50*%
%ADD26O,4.00X2.50*%
%ADD27C,2.20*%
%ADD28C,1.70*%
%ADD29R,1.70X1.70*%
%ADD30R,1.78X1.78*%
%ADD31C,1.78*%
%ADD32C,0.90*%
%ADD33C,1.40*%
%ADD34R,2.90X1.68*%
G04:AMPARAMS|DCode=35|XSize=1mm|YSize=1.1mm|CornerRadius=0mm|HoleSize=0mm|Usage=FLASHONLY|Rotation=315.000|XOffset=0mm|YOffset=0mm|HoleType=Round|Shape=Rectangle|*
%AMROTATEDRECTD35*
4,1,4,-0.74,-0.04,0.04,0.74,0.74,0.04,-0.04,-0.74,-0.74,-0.04,0.0*
%
%ADD35ROTATEDRECTD35*%

G04:AMPARAMS|DCode=36|XSize=1mm|YSize=1.1mm|CornerRadius=0mm|HoleSize=0mm|Usage=FLASHONLY|Rotation=225.000|XOffset=0mm|YOffset=0mm|HoleType=Round|Shape=Rectangle|*
%AMROTATEDRECTD36*
4,1,4,-0.04,0.74,0.74,-0.04,0.04,-0.74,-0.74,0.04,-0.04,0.74,0.0*
%
%ADD36ROTATEDRECTD36*%

%ADD37C,0.25*%
%ADD38C,0.20*%
%ADD39C,0.40*%
%ADD40R,1.20X1.30*%
%ADD41R,1.50X1.70*%
%ADD42O,1.90X0.80*%
%ADD43R,1.30X1.20*%
%ADD44R,1.40X0.80*%
G04:AMPARAMS|DCode=45|XSize=0.5mm|YSize=2mm|CornerRadius=0mm|HoleSize=0mm|Usage=FLASHONLY|Rotation=315.000|XOffset=0mm|YOffset=0mm|HoleType=Round|Shape=Round|*
%AMOVALD45*
21,1,1.50,0.50,0.00,0.00,45.0*
1,1,0.50,-0.53,-0.53*
1,1,0.50,0.53,0.53*
%
%ADD45OVALD45*%

G04:AMPARAMS|DCode=46|XSize=0.5mm|YSize=2mm|CornerRadius=0mm|HoleSize=0mm|Usage=FLASHONLY|Rotation=225.000|XOffset=0mm|YOffset=0mm|HoleType=Round|Shape=Round|*
%AMOVALD46*
21,1,1.50,0.50,0.00,0.00,315.0*
1,1,0.50,-0.53,0.53*
1,1,0.50,0.53,-0.53*
%
%ADD46OVALD46*%

%ADD47R,1.70X1.50*%
%ADD48C,1.70*%
%ADD49C,0.20*%
%ADD50O,4.20X2.70*%
%ADD51C,2.40*%
%ADD52C,1.90*%
%ADD53R,1.90X1.90*%
%ADD54R,1.98X1.98*%
%ADD55C,1.98*%
%ADD56R,3.10X1.88*%
G04:AMPARAMS|DCode=57|XSize=1.2mm|YSize=1.3mm|CornerRadius=0mm|HoleSize=0mm|Usage=FLASHONLY|Rotation=315.000|XOffset=0mm|YOffset=0mm|HoleType=Round|Shape=Rectangle|*
%AMROTATEDRECTD57*
4,1,4,-0.89,-0.04,0.04,0.89,0.89,0.04,-0.04,-0.89,-0.89,-0.04,0.0*
%
%ADD57ROTATEDRECTD57*%

G04:AMPARAMS|DCode=58|XSize=1.2mm|YSize=1.3mm|CornerRadius=0mm|HoleSize=0mm|Usage=FLASHONLY|Rotation=225.000|XOffset=0mm|YOffset=0mm|HoleType=Round|Shape=Rectangle|*
%AMROTATEDRECTD58*
4,1,4,-0.04,0.89,0.89,-0.04,0.04,-0.89,-0.89,0.04,-0.04,0.89,0.0*
%
%ADD58ROTATEDRECTD58*%

%ADD59C,0.20*%
D21*
X27023Y17688D02*
Y17942D01*
X28547Y17688D02*
Y17942D01*
X27023D02*
X28547D01*
X27023Y17688D02*
X28547D01*
X26769D02*
Y17942D01*
X24737Y17688D02*
Y17942D01*
Y17688D02*
X26769D01*
X24737Y17942D02*
X26769D01*
X28547Y22514D02*
Y22768D01*
X26515Y22514D02*
Y22768D01*
Y22514D02*
X28547D01*
X26515Y22768D02*
X28547D01*
X26363Y22514D02*
Y22768D01*
X23823Y22514D02*
Y22768D01*
Y22514D02*
X26363D01*
X23823Y22768D02*
X26363D01*
D37*
X23996Y21297D02*
G03*
X23996Y21297I-12J0D01*
G01*
X23629Y21297D02*
G03*
X23629Y21297I-12J0D01*
G01*
D38*
X24144Y21547D02*
X24144Y21627D01*
X24084Y21627D02*
X24144Y21627D01*
X24144Y21407D02*
X24144Y21327D01*
X24084D02*
X24144D01*
X23776Y21627D02*
X23776Y21547D01*
X23716Y21627D02*
X23776D01*
Y21327D02*
X23776Y21407D01*
X23716Y21327D02*
X23776D01*
X24918Y18867D02*
X24942D01*
X24966Y18843D01*
Y18820D01*
X24918Y18773D01*
X24895D01*
X24871Y18796D01*
Y18820D01*
X24789Y18879D02*
X24836Y18832D01*
Y18926D01*
X24848Y18938D01*
X24871Y18938D01*
X24895Y18914D01*
Y18891D01*
X25392Y19577D02*
X25415D01*
X25439Y19553D01*
Y19530D01*
X25392Y19483D01*
X25368D01*
X25345Y19506D01*
Y19530D01*
X25368Y19601D02*
Y19624D01*
X25345Y19648D01*
X25321Y19648D01*
X25309Y19636D01*
Y19612D01*
X25321Y19601D01*
X25309Y19612D01*
X25286Y19612D01*
X25274Y19601D01*
Y19577D01*
X25297Y19553D01*
X25321D01*
X25192Y18987D02*
X25215D01*
X25239Y18963D01*
Y18940D01*
X25192Y18893D01*
X25168D01*
X25145Y18916D01*
Y18940D01*
X25074Y18987D02*
X25145Y19058D01*
Y18987D01*
X25097Y19034D01*
X25462Y19247D02*
X25485D01*
X25509Y19223D01*
Y19200D01*
X25462Y19153D01*
X25438D01*
X25415Y19176D01*
Y19200D01*
X25403Y19330D02*
X25450Y19282D01*
X25415Y19247D01*
X25403Y19282D01*
X25391Y19294D01*
X25367D01*
X25344Y19271D01*
Y19247D01*
X25367Y19223D01*
X25391D01*
X24023Y20848D02*
X24040Y20831D01*
Y20798D01*
X24023Y20781D01*
X23957D01*
X23940Y20798D01*
Y20831D01*
X23957Y20848D01*
X24040Y20948D02*
X24023Y20914D01*
X23990Y20881D01*
X23957D01*
X23940Y20898D01*
Y20931D01*
X23957Y20948D01*
X23973D01*
X23990Y20931D01*
Y20881D01*
X23743Y20858D02*
X23760Y20841D01*
Y20808D01*
X23743Y20791D01*
X23677D01*
X23660Y20808D01*
Y20841D01*
X23677Y20858D01*
X23743Y20891D02*
X23760Y20908D01*
Y20941D01*
X23743Y20958D01*
X23727D01*
X23710Y20941D01*
X23693Y20958D01*
X23677D01*
X23660Y20941D01*
Y20908D01*
X23677Y20891D01*
X23693D01*
X23710Y20908D01*
X23727Y20891D01*
X23743D01*
X23710Y20908D02*
Y20941D01*
X23783Y19098D02*
X23800Y19081D01*
Y19048D01*
X23783Y19031D01*
X23717D01*
X23700Y19048D01*
Y19081D01*
X23717Y19098D01*
X23700Y19131D02*
Y19164D01*
Y19148D01*
X23800D01*
X23783Y19131D01*
Y19214D02*
X23800Y19231D01*
Y19264D01*
X23783Y19281D01*
X23717D01*
X23700Y19264D01*
Y19231D01*
X23717Y19214D01*
X23783D01*
X23643Y19098D02*
X23660Y19081D01*
Y19048D01*
X23643Y19031D01*
X23577D01*
X23560Y19048D01*
Y19081D01*
X23577Y19098D01*
X23560Y19131D02*
Y19164D01*
Y19148D01*
X23660D01*
X23643Y19131D01*
X23560Y19214D02*
Y19248D01*
Y19231D01*
X23660D01*
X23643Y19214D01*
X23503Y19098D02*
X23520Y19081D01*
Y19048D01*
X23503Y19031D01*
X23437D01*
X23420Y19048D01*
Y19081D01*
X23437Y19098D01*
X23420Y19131D02*
Y19164D01*
Y19148D01*
X23520D01*
X23503Y19131D01*
X23420Y19281D02*
Y19214D01*
X23487Y19281D01*
X23503D01*
X23520Y19264D01*
Y19231D01*
X23503Y19214D01*
X25464Y18601D02*
X25535Y18672D01*
X25500Y18707D01*
X25476D01*
X25453Y18684D01*
Y18660D01*
X25488Y18625D01*
X25464Y18648D02*
X25417D01*
X25394Y18672D02*
X25370Y18696D01*
X25382Y18684D01*
X25453Y18754D01*
Y18731D01*
X25710Y18821D02*
X25781Y18892D01*
X25745Y18927D01*
X25722D01*
X25698Y18903D01*
Y18880D01*
X25734Y18845D01*
X25710Y18868D02*
X25663D01*
X25592Y18939D02*
X25639Y18892D01*
Y18986D01*
X25651Y18998D01*
X25675Y18998D01*
X25698Y18974D01*
Y18951D01*
X24220Y22061D02*
X24320D01*
Y22111D01*
X24303Y22128D01*
X24270D01*
X24253Y22111D01*
Y22061D01*
Y22094D02*
X24220Y22128D01*
Y22161D02*
Y22194D01*
Y22178D01*
X24320D01*
X24303Y22161D01*
X24320Y22244D02*
Y22311D01*
X24303D01*
X24237Y22244D01*
X24220D01*
X24390Y22061D02*
X24490D01*
Y22111D01*
X24473Y22128D01*
X24440D01*
X24423Y22111D01*
Y22061D01*
Y22094D02*
X24390Y22128D01*
Y22161D02*
Y22194D01*
Y22178D01*
X24490D01*
X24473Y22161D01*
Y22244D02*
X24490Y22261D01*
Y22294D01*
X24473Y22311D01*
X24457D01*
X24440Y22294D01*
X24423Y22311D01*
X24407D01*
X24390Y22294D01*
Y22261D01*
X24407Y22244D01*
X24423D01*
X24440Y22261D01*
X24457Y22244D01*
X24473D01*
X24440Y22261D02*
Y22294D01*
X23830Y21961D02*
Y22061D01*
X23780D01*
X23763Y22044D01*
Y22011D01*
X23780Y21994D01*
X23830D01*
X23797D02*
X23763Y21961D01*
X23730D02*
X23697D01*
X23713D01*
Y22061D01*
X23730Y22044D01*
X23647Y21978D02*
X23630Y21961D01*
X23597D01*
X23580Y21978D01*
Y22044D01*
X23597Y22061D01*
X23630D01*
X23647Y22044D01*
Y22028D01*
X23630Y22011D01*
X23580D01*
X23390Y21961D02*
X23490D01*
Y22011D01*
X23473Y22028D01*
X23440D01*
X23423Y22011D01*
Y21961D01*
Y21994D02*
X23390Y22028D01*
Y22128D02*
Y22061D01*
X23457Y22128D01*
X23473D01*
X23490Y22111D01*
Y22078D01*
X23473Y22061D01*
X23390Y22161D02*
Y22194D01*
Y22178D01*
X23490D01*
X23473Y22161D01*
X24130Y20701D02*
X24230D01*
Y20751D01*
X24213Y20768D01*
X24180D01*
X24163Y20751D01*
Y20701D01*
Y20734D02*
X24130Y20768D01*
Y20868D02*
Y20801D01*
X24197Y20868D01*
X24213D01*
X24230Y20851D01*
Y20818D01*
X24213Y20801D01*
Y20901D02*
X24230Y20918D01*
Y20951D01*
X24213Y20968D01*
X24197D01*
X24180Y20951D01*
Y20934D01*
Y20951D01*
X24163Y20968D01*
X24147D01*
X24130Y20951D01*
Y20918D01*
X24147Y20901D01*
X23580Y20711D02*
X23651Y20782D01*
X23615Y20817D01*
X23592D01*
X23568Y20793D01*
Y20770D01*
X23604Y20735D01*
X23580Y20758D02*
X23533D01*
X23462Y20829D02*
X23509Y20782D01*
Y20876D01*
X23521Y20888D01*
X23545Y20888D01*
X23568Y20864D01*
Y20841D01*
X23462Y20970D02*
X23509Y20923D01*
X23474Y20888D01*
X23462Y20923D01*
X23450Y20935D01*
X23427D01*
X23403Y20911D01*
X23403Y20888D01*
X23427Y20864D01*
X23450D01*
X28760Y22191D02*
Y22124D01*
X28727Y22091D01*
X28693Y22124D01*
Y22191D01*
X28660D02*
Y22091D01*
X28610D01*
X28593Y22108D01*
Y22174D01*
X28610Y22191D01*
X28660D01*
X28493D02*
X28560D01*
Y22141D01*
X28527Y22158D01*
X28510D01*
X28493Y22141D01*
Y22108D01*
X28510Y22091D01*
X28543D01*
X28560Y22108D01*
X28780Y21165D02*
Y21098D01*
X28747Y21065D01*
X28713Y21098D01*
Y21165D01*
X28680D02*
Y21065D01*
X28630D01*
X28613Y21082D01*
Y21148D01*
X28630Y21165D01*
X28680D01*
X28513D02*
X28547Y21148D01*
X28580Y21115D01*
Y21082D01*
X28563Y21065D01*
X28530D01*
X28513Y21082D01*
Y21098D01*
X28530Y21115D01*
X28580D01*
X28770Y20159D02*
Y20092D01*
X28737Y20059D01*
X28703Y20092D01*
Y20159D01*
X28670D02*
Y20059D01*
X28620D01*
X28603Y20076D01*
Y20142D01*
X28620Y20159D01*
X28670D01*
X28570D02*
X28503D01*
Y20142D01*
X28570Y20076D01*
Y20059D01*
X28770Y19143D02*
Y19076D01*
X28737Y19043D01*
X28703Y19076D01*
Y19143D01*
X28670D02*
Y19043D01*
X28620D01*
X28603Y19060D01*
Y19126D01*
X28620Y19143D01*
X28670D01*
X28570Y19126D02*
X28553Y19143D01*
X28520D01*
X28503Y19126D01*
Y19110D01*
X28520Y19093D01*
X28503Y19076D01*
Y19060D01*
X28520Y19043D01*
X28553D01*
X28570Y19060D01*
Y19076D01*
X28553Y19093D01*
X28570Y19110D01*
Y19126D01*
X28553Y19093D02*
X28520D01*
X24364Y21337D02*
X24297D01*
X24264Y21370D01*
X24297Y21403D01*
X24364D01*
Y21437D02*
X24264D01*
Y21487D01*
X24280Y21503D01*
X24347D01*
X24364Y21487D01*
Y21437D01*
X24280Y21537D02*
X24264Y21553D01*
Y21587D01*
X24280Y21603D01*
X24347D01*
X24364Y21587D01*
Y21553D01*
X24347Y21537D01*
X24330D01*
X24314Y21553D01*
Y21603D01*
X23500Y21311D02*
X23433D01*
X23400Y21344D01*
X23433Y21378D01*
X23500D01*
Y21411D02*
X23400D01*
Y21461D01*
X23417Y21478D01*
X23483D01*
X23500Y21461D01*
Y21411D01*
X23400Y21511D02*
Y21544D01*
Y21528D01*
X23500D01*
X23483Y21511D01*
X23400Y21594D02*
Y21628D01*
Y21611D01*
X23500D01*
X23483Y21594D01*
D39*
X26992Y17968D02*
X27280D01*
X26992Y17665D02*
Y17968D01*
Y17665D02*
X27022D01*
X27280D01*
Y17968D01*
X26512Y17663D02*
X26799D01*
Y17965D01*
X26769D02*
X26799D01*
X26512D02*
X26769D01*
X26512Y17663D02*
Y17965D01*
X28290Y22489D02*
X28577D01*
Y22791D01*
X28547D02*
X28577D01*
X28290D02*
X28547D01*
X28290Y22489D02*
Y22791D01*
X26106Y22489D02*
X26393D01*
Y22791D01*
X26363D02*
X26393D01*
X26106D02*
X26363D01*
X26106Y22489D02*
Y22791D01*
D59*
X28457Y21840D02*
X28823D01*
Y21505D02*
Y21957D01*
X28457Y21505D02*
Y21957D01*
Y20824D02*
X28823D01*
Y20489D02*
Y20941D01*
X28457Y20489D02*
Y20941D01*
Y19808D02*
X28823D01*
Y19473D02*
Y19925D01*
X28457Y19473D02*
Y19925D01*
Y18792D02*
X28823D01*
Y18457D02*
Y18909D01*
X28457Y18457D02*
Y18909D01*
M02*
